%TF.GenerationSoftware,KiCad,Pcbnew,(5.1.10-1-10_14)*%
%TF.CreationDate,2021-07-27T16:47:55+08:00*%
%TF.ProjectId,mySTM32,6d795354-4d33-4322-9e6b-696361645f70,rev?*%
%TF.SameCoordinates,Original*%
%TF.FileFunction,Soldermask,Top*%
%TF.FilePolarity,Negative*%
%FSLAX46Y46*%
G04 Gerber Fmt 4.6, Leading zero omitted, Abs format (unit mm)*
G04 Created by KiCad (PCBNEW (5.1.10-1-10_14)) date 2021-07-27 16:47:55*
%MOMM*%
%LPD*%
G01*
G04 APERTURE LIST*
%ADD10R,3.800000X2.000000*%
%ADD11R,1.500000X2.000000*%
%ADD12R,2.200000X1.400000*%
%ADD13C,1.600000*%
%ADD14R,1.600000X1.600000*%
%ADD15C,1.200000*%
%ADD16R,2.300000X4.000000*%
%ADD17C,1.524000*%
%ADD18O,0.650000X2.200000*%
%ADD19R,1.000000X1.800000*%
%ADD20C,4.600000*%
%ADD21R,2.200000X1.500000*%
%ADD22C,1.500000*%
%ADD23O,2.200000X0.650000*%
%ADD24R,0.700000X1.600000*%
%ADD25R,1.000000X1.600000*%
%ADD26C,1.100000*%
%ADD27R,1.500000X2.800000*%
%ADD28C,1.800000*%
%ADD29R,0.800000X0.900000*%
%ADD30R,0.900000X0.800000*%
%ADD31C,1.700000*%
%ADD32C,1.000000*%
%ADD33R,1.700000X2.000000*%
%ADD34R,2.000000X0.500000*%
%ADD35C,4.000000*%
%ADD36C,2.500000*%
%ADD37R,1.524000X1.524000*%
G04 APERTURE END LIST*
D10*
%TO.C,U7*%
X147320000Y-51764800D03*
D11*
X147320000Y-58064800D03*
X149620000Y-58064800D03*
X145020000Y-58064800D03*
%TD*%
D12*
%TO.C,SW2*%
X78467500Y-130490400D03*
X87267500Y-130490400D03*
X87267500Y-134990400D03*
X78467500Y-134990400D03*
%TD*%
%TO.C,U9*%
G36*
G01*
X99796878Y-86337663D02*
X99902944Y-86231597D01*
G75*
G02*
X100009010Y-86231597I53033J-53033D01*
G01*
X101034314Y-87256901D01*
G75*
G02*
X101034314Y-87362967I-53033J-53033D01*
G01*
X100928248Y-87469033D01*
G75*
G02*
X100822182Y-87469033I-53033J53033D01*
G01*
X99796878Y-86443729D01*
G75*
G02*
X99796878Y-86337663I53033J53033D01*
G01*
G37*
G36*
G01*
X99443325Y-86691216D02*
X99549391Y-86585150D01*
G75*
G02*
X99655457Y-86585150I53033J-53033D01*
G01*
X100680761Y-87610454D01*
G75*
G02*
X100680761Y-87716520I-53033J-53033D01*
G01*
X100574695Y-87822586D01*
G75*
G02*
X100468629Y-87822586I-53033J53033D01*
G01*
X99443325Y-86797282D01*
G75*
G02*
X99443325Y-86691216I53033J53033D01*
G01*
G37*
G36*
G01*
X99089771Y-87044770D02*
X99195837Y-86938704D01*
G75*
G02*
X99301903Y-86938704I53033J-53033D01*
G01*
X100327207Y-87964008D01*
G75*
G02*
X100327207Y-88070074I-53033J-53033D01*
G01*
X100221141Y-88176140D01*
G75*
G02*
X100115075Y-88176140I-53033J53033D01*
G01*
X99089771Y-87150836D01*
G75*
G02*
X99089771Y-87044770I53033J53033D01*
G01*
G37*
G36*
G01*
X98736218Y-87398323D02*
X98842284Y-87292257D01*
G75*
G02*
X98948350Y-87292257I53033J-53033D01*
G01*
X99973654Y-88317561D01*
G75*
G02*
X99973654Y-88423627I-53033J-53033D01*
G01*
X99867588Y-88529693D01*
G75*
G02*
X99761522Y-88529693I-53033J53033D01*
G01*
X98736218Y-87504389D01*
G75*
G02*
X98736218Y-87398323I53033J53033D01*
G01*
G37*
G36*
G01*
X98382665Y-87751876D02*
X98488731Y-87645810D01*
G75*
G02*
X98594797Y-87645810I53033J-53033D01*
G01*
X99620101Y-88671114D01*
G75*
G02*
X99620101Y-88777180I-53033J-53033D01*
G01*
X99514035Y-88883246D01*
G75*
G02*
X99407969Y-88883246I-53033J53033D01*
G01*
X98382665Y-87857942D01*
G75*
G02*
X98382665Y-87751876I53033J53033D01*
G01*
G37*
G36*
G01*
X98029111Y-88105430D02*
X98135177Y-87999364D01*
G75*
G02*
X98241243Y-87999364I53033J-53033D01*
G01*
X99266547Y-89024668D01*
G75*
G02*
X99266547Y-89130734I-53033J-53033D01*
G01*
X99160481Y-89236800D01*
G75*
G02*
X99054415Y-89236800I-53033J53033D01*
G01*
X98029111Y-88211496D01*
G75*
G02*
X98029111Y-88105430I53033J53033D01*
G01*
G37*
G36*
G01*
X97675558Y-88458983D02*
X97781624Y-88352917D01*
G75*
G02*
X97887690Y-88352917I53033J-53033D01*
G01*
X98912994Y-89378221D01*
G75*
G02*
X98912994Y-89484287I-53033J-53033D01*
G01*
X98806928Y-89590353D01*
G75*
G02*
X98700862Y-89590353I-53033J53033D01*
G01*
X97675558Y-88565049D01*
G75*
G02*
X97675558Y-88458983I53033J53033D01*
G01*
G37*
G36*
G01*
X97322004Y-88812537D02*
X97428070Y-88706471D01*
G75*
G02*
X97534136Y-88706471I53033J-53033D01*
G01*
X98559440Y-89731775D01*
G75*
G02*
X98559440Y-89837841I-53033J-53033D01*
G01*
X98453374Y-89943907D01*
G75*
G02*
X98347308Y-89943907I-53033J53033D01*
G01*
X97322004Y-88918603D01*
G75*
G02*
X97322004Y-88812537I53033J53033D01*
G01*
G37*
G36*
G01*
X96968451Y-89166090D02*
X97074517Y-89060024D01*
G75*
G02*
X97180583Y-89060024I53033J-53033D01*
G01*
X98205887Y-90085328D01*
G75*
G02*
X98205887Y-90191394I-53033J-53033D01*
G01*
X98099821Y-90297460D01*
G75*
G02*
X97993755Y-90297460I-53033J53033D01*
G01*
X96968451Y-89272156D01*
G75*
G02*
X96968451Y-89166090I53033J53033D01*
G01*
G37*
G36*
G01*
X96614898Y-89519643D02*
X96720964Y-89413577D01*
G75*
G02*
X96827030Y-89413577I53033J-53033D01*
G01*
X97852334Y-90438881D01*
G75*
G02*
X97852334Y-90544947I-53033J-53033D01*
G01*
X97746268Y-90651013D01*
G75*
G02*
X97640202Y-90651013I-53033J53033D01*
G01*
X96614898Y-89625709D01*
G75*
G02*
X96614898Y-89519643I53033J53033D01*
G01*
G37*
G36*
G01*
X96261344Y-89873197D02*
X96367410Y-89767131D01*
G75*
G02*
X96473476Y-89767131I53033J-53033D01*
G01*
X97498780Y-90792435D01*
G75*
G02*
X97498780Y-90898501I-53033J-53033D01*
G01*
X97392714Y-91004567D01*
G75*
G02*
X97286648Y-91004567I-53033J53033D01*
G01*
X96261344Y-89979263D01*
G75*
G02*
X96261344Y-89873197I53033J53033D01*
G01*
G37*
G36*
G01*
X95907791Y-90226750D02*
X96013857Y-90120684D01*
G75*
G02*
X96119923Y-90120684I53033J-53033D01*
G01*
X97145227Y-91145988D01*
G75*
G02*
X97145227Y-91252054I-53033J-53033D01*
G01*
X97039161Y-91358120D01*
G75*
G02*
X96933095Y-91358120I-53033J53033D01*
G01*
X95907791Y-90332816D01*
G75*
G02*
X95907791Y-90226750I53033J53033D01*
G01*
G37*
G36*
G01*
X95554237Y-90580303D02*
X95660303Y-90474237D01*
G75*
G02*
X95766369Y-90474237I53033J-53033D01*
G01*
X96791673Y-91499541D01*
G75*
G02*
X96791673Y-91605607I-53033J-53033D01*
G01*
X96685607Y-91711673D01*
G75*
G02*
X96579541Y-91711673I-53033J53033D01*
G01*
X95554237Y-90686369D01*
G75*
G02*
X95554237Y-90580303I53033J53033D01*
G01*
G37*
G36*
G01*
X95200684Y-90933857D02*
X95306750Y-90827791D01*
G75*
G02*
X95412816Y-90827791I53033J-53033D01*
G01*
X96438120Y-91853095D01*
G75*
G02*
X96438120Y-91959161I-53033J-53033D01*
G01*
X96332054Y-92065227D01*
G75*
G02*
X96225988Y-92065227I-53033J53033D01*
G01*
X95200684Y-91039923D01*
G75*
G02*
X95200684Y-90933857I53033J53033D01*
G01*
G37*
G36*
G01*
X94847131Y-91287410D02*
X94953197Y-91181344D01*
G75*
G02*
X95059263Y-91181344I53033J-53033D01*
G01*
X96084567Y-92206648D01*
G75*
G02*
X96084567Y-92312714I-53033J-53033D01*
G01*
X95978501Y-92418780D01*
G75*
G02*
X95872435Y-92418780I-53033J53033D01*
G01*
X94847131Y-91393476D01*
G75*
G02*
X94847131Y-91287410I53033J53033D01*
G01*
G37*
G36*
G01*
X94493577Y-91640964D02*
X94599643Y-91534898D01*
G75*
G02*
X94705709Y-91534898I53033J-53033D01*
G01*
X95731013Y-92560202D01*
G75*
G02*
X95731013Y-92666268I-53033J-53033D01*
G01*
X95624947Y-92772334D01*
G75*
G02*
X95518881Y-92772334I-53033J53033D01*
G01*
X94493577Y-91747030D01*
G75*
G02*
X94493577Y-91640964I53033J53033D01*
G01*
G37*
G36*
G01*
X94140024Y-91994517D02*
X94246090Y-91888451D01*
G75*
G02*
X94352156Y-91888451I53033J-53033D01*
G01*
X95377460Y-92913755D01*
G75*
G02*
X95377460Y-93019821I-53033J-53033D01*
G01*
X95271394Y-93125887D01*
G75*
G02*
X95165328Y-93125887I-53033J53033D01*
G01*
X94140024Y-92100583D01*
G75*
G02*
X94140024Y-91994517I53033J53033D01*
G01*
G37*
G36*
G01*
X93786471Y-92348070D02*
X93892537Y-92242004D01*
G75*
G02*
X93998603Y-92242004I53033J-53033D01*
G01*
X95023907Y-93267308D01*
G75*
G02*
X95023907Y-93373374I-53033J-53033D01*
G01*
X94917841Y-93479440D01*
G75*
G02*
X94811775Y-93479440I-53033J53033D01*
G01*
X93786471Y-92454136D01*
G75*
G02*
X93786471Y-92348070I53033J53033D01*
G01*
G37*
G36*
G01*
X93432917Y-92701624D02*
X93538983Y-92595558D01*
G75*
G02*
X93645049Y-92595558I53033J-53033D01*
G01*
X94670353Y-93620862D01*
G75*
G02*
X94670353Y-93726928I-53033J-53033D01*
G01*
X94564287Y-93832994D01*
G75*
G02*
X94458221Y-93832994I-53033J53033D01*
G01*
X93432917Y-92807690D01*
G75*
G02*
X93432917Y-92701624I53033J53033D01*
G01*
G37*
G36*
G01*
X93079364Y-93055177D02*
X93185430Y-92949111D01*
G75*
G02*
X93291496Y-92949111I53033J-53033D01*
G01*
X94316800Y-93974415D01*
G75*
G02*
X94316800Y-94080481I-53033J-53033D01*
G01*
X94210734Y-94186547D01*
G75*
G02*
X94104668Y-94186547I-53033J53033D01*
G01*
X93079364Y-93161243D01*
G75*
G02*
X93079364Y-93055177I53033J53033D01*
G01*
G37*
G36*
G01*
X92725810Y-93408731D02*
X92831876Y-93302665D01*
G75*
G02*
X92937942Y-93302665I53033J-53033D01*
G01*
X93963246Y-94327969D01*
G75*
G02*
X93963246Y-94434035I-53033J-53033D01*
G01*
X93857180Y-94540101D01*
G75*
G02*
X93751114Y-94540101I-53033J53033D01*
G01*
X92725810Y-93514797D01*
G75*
G02*
X92725810Y-93408731I53033J53033D01*
G01*
G37*
G36*
G01*
X92372257Y-93762284D02*
X92478323Y-93656218D01*
G75*
G02*
X92584389Y-93656218I53033J-53033D01*
G01*
X93609693Y-94681522D01*
G75*
G02*
X93609693Y-94787588I-53033J-53033D01*
G01*
X93503627Y-94893654D01*
G75*
G02*
X93397561Y-94893654I-53033J53033D01*
G01*
X92372257Y-93868350D01*
G75*
G02*
X92372257Y-93762284I53033J53033D01*
G01*
G37*
G36*
G01*
X92018704Y-94115837D02*
X92124770Y-94009771D01*
G75*
G02*
X92230836Y-94009771I53033J-53033D01*
G01*
X93256140Y-95035075D01*
G75*
G02*
X93256140Y-95141141I-53033J-53033D01*
G01*
X93150074Y-95247207D01*
G75*
G02*
X93044008Y-95247207I-53033J53033D01*
G01*
X92018704Y-94221903D01*
G75*
G02*
X92018704Y-94115837I53033J53033D01*
G01*
G37*
G36*
G01*
X91665150Y-94469391D02*
X91771216Y-94363325D01*
G75*
G02*
X91877282Y-94363325I53033J-53033D01*
G01*
X92902586Y-95388629D01*
G75*
G02*
X92902586Y-95494695I-53033J-53033D01*
G01*
X92796520Y-95600761D01*
G75*
G02*
X92690454Y-95600761I-53033J53033D01*
G01*
X91665150Y-94575457D01*
G75*
G02*
X91665150Y-94469391I53033J53033D01*
G01*
G37*
G36*
G01*
X91311597Y-94822944D02*
X91417663Y-94716878D01*
G75*
G02*
X91523729Y-94716878I53033J-53033D01*
G01*
X92549033Y-95742182D01*
G75*
G02*
X92549033Y-95848248I-53033J-53033D01*
G01*
X92442967Y-95954314D01*
G75*
G02*
X92336901Y-95954314I-53033J53033D01*
G01*
X91311597Y-94929010D01*
G75*
G02*
X91311597Y-94822944I53033J53033D01*
G01*
G37*
G36*
G01*
X91311597Y-98110990D02*
X92336901Y-97085686D01*
G75*
G02*
X92442967Y-97085686I53033J-53033D01*
G01*
X92549033Y-97191752D01*
G75*
G02*
X92549033Y-97297818I-53033J-53033D01*
G01*
X91523729Y-98323122D01*
G75*
G02*
X91417663Y-98323122I-53033J53033D01*
G01*
X91311597Y-98217056D01*
G75*
G02*
X91311597Y-98110990I53033J53033D01*
G01*
G37*
G36*
G01*
X91665150Y-98464543D02*
X92690454Y-97439239D01*
G75*
G02*
X92796520Y-97439239I53033J-53033D01*
G01*
X92902586Y-97545305D01*
G75*
G02*
X92902586Y-97651371I-53033J-53033D01*
G01*
X91877282Y-98676675D01*
G75*
G02*
X91771216Y-98676675I-53033J53033D01*
G01*
X91665150Y-98570609D01*
G75*
G02*
X91665150Y-98464543I53033J53033D01*
G01*
G37*
G36*
G01*
X92018704Y-98818097D02*
X93044008Y-97792793D01*
G75*
G02*
X93150074Y-97792793I53033J-53033D01*
G01*
X93256140Y-97898859D01*
G75*
G02*
X93256140Y-98004925I-53033J-53033D01*
G01*
X92230836Y-99030229D01*
G75*
G02*
X92124770Y-99030229I-53033J53033D01*
G01*
X92018704Y-98924163D01*
G75*
G02*
X92018704Y-98818097I53033J53033D01*
G01*
G37*
G36*
G01*
X92372257Y-99171650D02*
X93397561Y-98146346D01*
G75*
G02*
X93503627Y-98146346I53033J-53033D01*
G01*
X93609693Y-98252412D01*
G75*
G02*
X93609693Y-98358478I-53033J-53033D01*
G01*
X92584389Y-99383782D01*
G75*
G02*
X92478323Y-99383782I-53033J53033D01*
G01*
X92372257Y-99277716D01*
G75*
G02*
X92372257Y-99171650I53033J53033D01*
G01*
G37*
G36*
G01*
X92725810Y-99525203D02*
X93751114Y-98499899D01*
G75*
G02*
X93857180Y-98499899I53033J-53033D01*
G01*
X93963246Y-98605965D01*
G75*
G02*
X93963246Y-98712031I-53033J-53033D01*
G01*
X92937942Y-99737335D01*
G75*
G02*
X92831876Y-99737335I-53033J53033D01*
G01*
X92725810Y-99631269D01*
G75*
G02*
X92725810Y-99525203I53033J53033D01*
G01*
G37*
G36*
G01*
X93079364Y-99878757D02*
X94104668Y-98853453D01*
G75*
G02*
X94210734Y-98853453I53033J-53033D01*
G01*
X94316800Y-98959519D01*
G75*
G02*
X94316800Y-99065585I-53033J-53033D01*
G01*
X93291496Y-100090889D01*
G75*
G02*
X93185430Y-100090889I-53033J53033D01*
G01*
X93079364Y-99984823D01*
G75*
G02*
X93079364Y-99878757I53033J53033D01*
G01*
G37*
G36*
G01*
X93432917Y-100232310D02*
X94458221Y-99207006D01*
G75*
G02*
X94564287Y-99207006I53033J-53033D01*
G01*
X94670353Y-99313072D01*
G75*
G02*
X94670353Y-99419138I-53033J-53033D01*
G01*
X93645049Y-100444442D01*
G75*
G02*
X93538983Y-100444442I-53033J53033D01*
G01*
X93432917Y-100338376D01*
G75*
G02*
X93432917Y-100232310I53033J53033D01*
G01*
G37*
G36*
G01*
X93786471Y-100585864D02*
X94811775Y-99560560D01*
G75*
G02*
X94917841Y-99560560I53033J-53033D01*
G01*
X95023907Y-99666626D01*
G75*
G02*
X95023907Y-99772692I-53033J-53033D01*
G01*
X93998603Y-100797996D01*
G75*
G02*
X93892537Y-100797996I-53033J53033D01*
G01*
X93786471Y-100691930D01*
G75*
G02*
X93786471Y-100585864I53033J53033D01*
G01*
G37*
G36*
G01*
X94140024Y-100939417D02*
X95165328Y-99914113D01*
G75*
G02*
X95271394Y-99914113I53033J-53033D01*
G01*
X95377460Y-100020179D01*
G75*
G02*
X95377460Y-100126245I-53033J-53033D01*
G01*
X94352156Y-101151549D01*
G75*
G02*
X94246090Y-101151549I-53033J53033D01*
G01*
X94140024Y-101045483D01*
G75*
G02*
X94140024Y-100939417I53033J53033D01*
G01*
G37*
G36*
G01*
X94493577Y-101292970D02*
X95518881Y-100267666D01*
G75*
G02*
X95624947Y-100267666I53033J-53033D01*
G01*
X95731013Y-100373732D01*
G75*
G02*
X95731013Y-100479798I-53033J-53033D01*
G01*
X94705709Y-101505102D01*
G75*
G02*
X94599643Y-101505102I-53033J53033D01*
G01*
X94493577Y-101399036D01*
G75*
G02*
X94493577Y-101292970I53033J53033D01*
G01*
G37*
G36*
G01*
X94847131Y-101646524D02*
X95872435Y-100621220D01*
G75*
G02*
X95978501Y-100621220I53033J-53033D01*
G01*
X96084567Y-100727286D01*
G75*
G02*
X96084567Y-100833352I-53033J-53033D01*
G01*
X95059263Y-101858656D01*
G75*
G02*
X94953197Y-101858656I-53033J53033D01*
G01*
X94847131Y-101752590D01*
G75*
G02*
X94847131Y-101646524I53033J53033D01*
G01*
G37*
G36*
G01*
X95200684Y-102000077D02*
X96225988Y-100974773D01*
G75*
G02*
X96332054Y-100974773I53033J-53033D01*
G01*
X96438120Y-101080839D01*
G75*
G02*
X96438120Y-101186905I-53033J-53033D01*
G01*
X95412816Y-102212209D01*
G75*
G02*
X95306750Y-102212209I-53033J53033D01*
G01*
X95200684Y-102106143D01*
G75*
G02*
X95200684Y-102000077I53033J53033D01*
G01*
G37*
G36*
G01*
X95554237Y-102353631D02*
X96579541Y-101328327D01*
G75*
G02*
X96685607Y-101328327I53033J-53033D01*
G01*
X96791673Y-101434393D01*
G75*
G02*
X96791673Y-101540459I-53033J-53033D01*
G01*
X95766369Y-102565763D01*
G75*
G02*
X95660303Y-102565763I-53033J53033D01*
G01*
X95554237Y-102459697D01*
G75*
G02*
X95554237Y-102353631I53033J53033D01*
G01*
G37*
G36*
G01*
X95907791Y-102707184D02*
X96933095Y-101681880D01*
G75*
G02*
X97039161Y-101681880I53033J-53033D01*
G01*
X97145227Y-101787946D01*
G75*
G02*
X97145227Y-101894012I-53033J-53033D01*
G01*
X96119923Y-102919316D01*
G75*
G02*
X96013857Y-102919316I-53033J53033D01*
G01*
X95907791Y-102813250D01*
G75*
G02*
X95907791Y-102707184I53033J53033D01*
G01*
G37*
G36*
G01*
X96261344Y-103060737D02*
X97286648Y-102035433D01*
G75*
G02*
X97392714Y-102035433I53033J-53033D01*
G01*
X97498780Y-102141499D01*
G75*
G02*
X97498780Y-102247565I-53033J-53033D01*
G01*
X96473476Y-103272869D01*
G75*
G02*
X96367410Y-103272869I-53033J53033D01*
G01*
X96261344Y-103166803D01*
G75*
G02*
X96261344Y-103060737I53033J53033D01*
G01*
G37*
G36*
G01*
X96614898Y-103414291D02*
X97640202Y-102388987D01*
G75*
G02*
X97746268Y-102388987I53033J-53033D01*
G01*
X97852334Y-102495053D01*
G75*
G02*
X97852334Y-102601119I-53033J-53033D01*
G01*
X96827030Y-103626423D01*
G75*
G02*
X96720964Y-103626423I-53033J53033D01*
G01*
X96614898Y-103520357D01*
G75*
G02*
X96614898Y-103414291I53033J53033D01*
G01*
G37*
G36*
G01*
X96968451Y-103767844D02*
X97993755Y-102742540D01*
G75*
G02*
X98099821Y-102742540I53033J-53033D01*
G01*
X98205887Y-102848606D01*
G75*
G02*
X98205887Y-102954672I-53033J-53033D01*
G01*
X97180583Y-103979976D01*
G75*
G02*
X97074517Y-103979976I-53033J53033D01*
G01*
X96968451Y-103873910D01*
G75*
G02*
X96968451Y-103767844I53033J53033D01*
G01*
G37*
G36*
G01*
X97322004Y-104121397D02*
X98347308Y-103096093D01*
G75*
G02*
X98453374Y-103096093I53033J-53033D01*
G01*
X98559440Y-103202159D01*
G75*
G02*
X98559440Y-103308225I-53033J-53033D01*
G01*
X97534136Y-104333529D01*
G75*
G02*
X97428070Y-104333529I-53033J53033D01*
G01*
X97322004Y-104227463D01*
G75*
G02*
X97322004Y-104121397I53033J53033D01*
G01*
G37*
G36*
G01*
X97675558Y-104474951D02*
X98700862Y-103449647D01*
G75*
G02*
X98806928Y-103449647I53033J-53033D01*
G01*
X98912994Y-103555713D01*
G75*
G02*
X98912994Y-103661779I-53033J-53033D01*
G01*
X97887690Y-104687083D01*
G75*
G02*
X97781624Y-104687083I-53033J53033D01*
G01*
X97675558Y-104581017D01*
G75*
G02*
X97675558Y-104474951I53033J53033D01*
G01*
G37*
G36*
G01*
X98029111Y-104828504D02*
X99054415Y-103803200D01*
G75*
G02*
X99160481Y-103803200I53033J-53033D01*
G01*
X99266547Y-103909266D01*
G75*
G02*
X99266547Y-104015332I-53033J-53033D01*
G01*
X98241243Y-105040636D01*
G75*
G02*
X98135177Y-105040636I-53033J53033D01*
G01*
X98029111Y-104934570D01*
G75*
G02*
X98029111Y-104828504I53033J53033D01*
G01*
G37*
G36*
G01*
X98382665Y-105182058D02*
X99407969Y-104156754D01*
G75*
G02*
X99514035Y-104156754I53033J-53033D01*
G01*
X99620101Y-104262820D01*
G75*
G02*
X99620101Y-104368886I-53033J-53033D01*
G01*
X98594797Y-105394190D01*
G75*
G02*
X98488731Y-105394190I-53033J53033D01*
G01*
X98382665Y-105288124D01*
G75*
G02*
X98382665Y-105182058I53033J53033D01*
G01*
G37*
G36*
G01*
X98736218Y-105535611D02*
X99761522Y-104510307D01*
G75*
G02*
X99867588Y-104510307I53033J-53033D01*
G01*
X99973654Y-104616373D01*
G75*
G02*
X99973654Y-104722439I-53033J-53033D01*
G01*
X98948350Y-105747743D01*
G75*
G02*
X98842284Y-105747743I-53033J53033D01*
G01*
X98736218Y-105641677D01*
G75*
G02*
X98736218Y-105535611I53033J53033D01*
G01*
G37*
G36*
G01*
X99089771Y-105889164D02*
X100115075Y-104863860D01*
G75*
G02*
X100221141Y-104863860I53033J-53033D01*
G01*
X100327207Y-104969926D01*
G75*
G02*
X100327207Y-105075992I-53033J-53033D01*
G01*
X99301903Y-106101296D01*
G75*
G02*
X99195837Y-106101296I-53033J53033D01*
G01*
X99089771Y-105995230D01*
G75*
G02*
X99089771Y-105889164I53033J53033D01*
G01*
G37*
G36*
G01*
X99443325Y-106242718D02*
X100468629Y-105217414D01*
G75*
G02*
X100574695Y-105217414I53033J-53033D01*
G01*
X100680761Y-105323480D01*
G75*
G02*
X100680761Y-105429546I-53033J-53033D01*
G01*
X99655457Y-106454850D01*
G75*
G02*
X99549391Y-106454850I-53033J53033D01*
G01*
X99443325Y-106348784D01*
G75*
G02*
X99443325Y-106242718I53033J53033D01*
G01*
G37*
G36*
G01*
X99796878Y-106596271D02*
X100822182Y-105570967D01*
G75*
G02*
X100928248Y-105570967I53033J-53033D01*
G01*
X101034314Y-105677033D01*
G75*
G02*
X101034314Y-105783099I-53033J-53033D01*
G01*
X100009010Y-106808403D01*
G75*
G02*
X99902944Y-106808403I-53033J53033D01*
G01*
X99796878Y-106702337D01*
G75*
G02*
X99796878Y-106596271I53033J53033D01*
G01*
G37*
G36*
G01*
X102165686Y-105677033D02*
X102271752Y-105570967D01*
G75*
G02*
X102377818Y-105570967I53033J-53033D01*
G01*
X103403122Y-106596271D01*
G75*
G02*
X103403122Y-106702337I-53033J-53033D01*
G01*
X103297056Y-106808403D01*
G75*
G02*
X103190990Y-106808403I-53033J53033D01*
G01*
X102165686Y-105783099D01*
G75*
G02*
X102165686Y-105677033I53033J53033D01*
G01*
G37*
G36*
G01*
X102519239Y-105323480D02*
X102625305Y-105217414D01*
G75*
G02*
X102731371Y-105217414I53033J-53033D01*
G01*
X103756675Y-106242718D01*
G75*
G02*
X103756675Y-106348784I-53033J-53033D01*
G01*
X103650609Y-106454850D01*
G75*
G02*
X103544543Y-106454850I-53033J53033D01*
G01*
X102519239Y-105429546D01*
G75*
G02*
X102519239Y-105323480I53033J53033D01*
G01*
G37*
G36*
G01*
X102872793Y-104969926D02*
X102978859Y-104863860D01*
G75*
G02*
X103084925Y-104863860I53033J-53033D01*
G01*
X104110229Y-105889164D01*
G75*
G02*
X104110229Y-105995230I-53033J-53033D01*
G01*
X104004163Y-106101296D01*
G75*
G02*
X103898097Y-106101296I-53033J53033D01*
G01*
X102872793Y-105075992D01*
G75*
G02*
X102872793Y-104969926I53033J53033D01*
G01*
G37*
G36*
G01*
X103226346Y-104616373D02*
X103332412Y-104510307D01*
G75*
G02*
X103438478Y-104510307I53033J-53033D01*
G01*
X104463782Y-105535611D01*
G75*
G02*
X104463782Y-105641677I-53033J-53033D01*
G01*
X104357716Y-105747743D01*
G75*
G02*
X104251650Y-105747743I-53033J53033D01*
G01*
X103226346Y-104722439D01*
G75*
G02*
X103226346Y-104616373I53033J53033D01*
G01*
G37*
G36*
G01*
X103579899Y-104262820D02*
X103685965Y-104156754D01*
G75*
G02*
X103792031Y-104156754I53033J-53033D01*
G01*
X104817335Y-105182058D01*
G75*
G02*
X104817335Y-105288124I-53033J-53033D01*
G01*
X104711269Y-105394190D01*
G75*
G02*
X104605203Y-105394190I-53033J53033D01*
G01*
X103579899Y-104368886D01*
G75*
G02*
X103579899Y-104262820I53033J53033D01*
G01*
G37*
G36*
G01*
X103933453Y-103909266D02*
X104039519Y-103803200D01*
G75*
G02*
X104145585Y-103803200I53033J-53033D01*
G01*
X105170889Y-104828504D01*
G75*
G02*
X105170889Y-104934570I-53033J-53033D01*
G01*
X105064823Y-105040636D01*
G75*
G02*
X104958757Y-105040636I-53033J53033D01*
G01*
X103933453Y-104015332D01*
G75*
G02*
X103933453Y-103909266I53033J53033D01*
G01*
G37*
G36*
G01*
X104287006Y-103555713D02*
X104393072Y-103449647D01*
G75*
G02*
X104499138Y-103449647I53033J-53033D01*
G01*
X105524442Y-104474951D01*
G75*
G02*
X105524442Y-104581017I-53033J-53033D01*
G01*
X105418376Y-104687083D01*
G75*
G02*
X105312310Y-104687083I-53033J53033D01*
G01*
X104287006Y-103661779D01*
G75*
G02*
X104287006Y-103555713I53033J53033D01*
G01*
G37*
G36*
G01*
X104640560Y-103202159D02*
X104746626Y-103096093D01*
G75*
G02*
X104852692Y-103096093I53033J-53033D01*
G01*
X105877996Y-104121397D01*
G75*
G02*
X105877996Y-104227463I-53033J-53033D01*
G01*
X105771930Y-104333529D01*
G75*
G02*
X105665864Y-104333529I-53033J53033D01*
G01*
X104640560Y-103308225D01*
G75*
G02*
X104640560Y-103202159I53033J53033D01*
G01*
G37*
G36*
G01*
X104994113Y-102848606D02*
X105100179Y-102742540D01*
G75*
G02*
X105206245Y-102742540I53033J-53033D01*
G01*
X106231549Y-103767844D01*
G75*
G02*
X106231549Y-103873910I-53033J-53033D01*
G01*
X106125483Y-103979976D01*
G75*
G02*
X106019417Y-103979976I-53033J53033D01*
G01*
X104994113Y-102954672D01*
G75*
G02*
X104994113Y-102848606I53033J53033D01*
G01*
G37*
G36*
G01*
X105347666Y-102495053D02*
X105453732Y-102388987D01*
G75*
G02*
X105559798Y-102388987I53033J-53033D01*
G01*
X106585102Y-103414291D01*
G75*
G02*
X106585102Y-103520357I-53033J-53033D01*
G01*
X106479036Y-103626423D01*
G75*
G02*
X106372970Y-103626423I-53033J53033D01*
G01*
X105347666Y-102601119D01*
G75*
G02*
X105347666Y-102495053I53033J53033D01*
G01*
G37*
G36*
G01*
X105701220Y-102141499D02*
X105807286Y-102035433D01*
G75*
G02*
X105913352Y-102035433I53033J-53033D01*
G01*
X106938656Y-103060737D01*
G75*
G02*
X106938656Y-103166803I-53033J-53033D01*
G01*
X106832590Y-103272869D01*
G75*
G02*
X106726524Y-103272869I-53033J53033D01*
G01*
X105701220Y-102247565D01*
G75*
G02*
X105701220Y-102141499I53033J53033D01*
G01*
G37*
G36*
G01*
X106054773Y-101787946D02*
X106160839Y-101681880D01*
G75*
G02*
X106266905Y-101681880I53033J-53033D01*
G01*
X107292209Y-102707184D01*
G75*
G02*
X107292209Y-102813250I-53033J-53033D01*
G01*
X107186143Y-102919316D01*
G75*
G02*
X107080077Y-102919316I-53033J53033D01*
G01*
X106054773Y-101894012D01*
G75*
G02*
X106054773Y-101787946I53033J53033D01*
G01*
G37*
G36*
G01*
X106408327Y-101434393D02*
X106514393Y-101328327D01*
G75*
G02*
X106620459Y-101328327I53033J-53033D01*
G01*
X107645763Y-102353631D01*
G75*
G02*
X107645763Y-102459697I-53033J-53033D01*
G01*
X107539697Y-102565763D01*
G75*
G02*
X107433631Y-102565763I-53033J53033D01*
G01*
X106408327Y-101540459D01*
G75*
G02*
X106408327Y-101434393I53033J53033D01*
G01*
G37*
G36*
G01*
X106761880Y-101080839D02*
X106867946Y-100974773D01*
G75*
G02*
X106974012Y-100974773I53033J-53033D01*
G01*
X107999316Y-102000077D01*
G75*
G02*
X107999316Y-102106143I-53033J-53033D01*
G01*
X107893250Y-102212209D01*
G75*
G02*
X107787184Y-102212209I-53033J53033D01*
G01*
X106761880Y-101186905D01*
G75*
G02*
X106761880Y-101080839I53033J53033D01*
G01*
G37*
G36*
G01*
X107115433Y-100727286D02*
X107221499Y-100621220D01*
G75*
G02*
X107327565Y-100621220I53033J-53033D01*
G01*
X108352869Y-101646524D01*
G75*
G02*
X108352869Y-101752590I-53033J-53033D01*
G01*
X108246803Y-101858656D01*
G75*
G02*
X108140737Y-101858656I-53033J53033D01*
G01*
X107115433Y-100833352D01*
G75*
G02*
X107115433Y-100727286I53033J53033D01*
G01*
G37*
G36*
G01*
X107468987Y-100373732D02*
X107575053Y-100267666D01*
G75*
G02*
X107681119Y-100267666I53033J-53033D01*
G01*
X108706423Y-101292970D01*
G75*
G02*
X108706423Y-101399036I-53033J-53033D01*
G01*
X108600357Y-101505102D01*
G75*
G02*
X108494291Y-101505102I-53033J53033D01*
G01*
X107468987Y-100479798D01*
G75*
G02*
X107468987Y-100373732I53033J53033D01*
G01*
G37*
G36*
G01*
X107822540Y-100020179D02*
X107928606Y-99914113D01*
G75*
G02*
X108034672Y-99914113I53033J-53033D01*
G01*
X109059976Y-100939417D01*
G75*
G02*
X109059976Y-101045483I-53033J-53033D01*
G01*
X108953910Y-101151549D01*
G75*
G02*
X108847844Y-101151549I-53033J53033D01*
G01*
X107822540Y-100126245D01*
G75*
G02*
X107822540Y-100020179I53033J53033D01*
G01*
G37*
G36*
G01*
X108176093Y-99666626D02*
X108282159Y-99560560D01*
G75*
G02*
X108388225Y-99560560I53033J-53033D01*
G01*
X109413529Y-100585864D01*
G75*
G02*
X109413529Y-100691930I-53033J-53033D01*
G01*
X109307463Y-100797996D01*
G75*
G02*
X109201397Y-100797996I-53033J53033D01*
G01*
X108176093Y-99772692D01*
G75*
G02*
X108176093Y-99666626I53033J53033D01*
G01*
G37*
G36*
G01*
X108529647Y-99313072D02*
X108635713Y-99207006D01*
G75*
G02*
X108741779Y-99207006I53033J-53033D01*
G01*
X109767083Y-100232310D01*
G75*
G02*
X109767083Y-100338376I-53033J-53033D01*
G01*
X109661017Y-100444442D01*
G75*
G02*
X109554951Y-100444442I-53033J53033D01*
G01*
X108529647Y-99419138D01*
G75*
G02*
X108529647Y-99313072I53033J53033D01*
G01*
G37*
G36*
G01*
X108883200Y-98959519D02*
X108989266Y-98853453D01*
G75*
G02*
X109095332Y-98853453I53033J-53033D01*
G01*
X110120636Y-99878757D01*
G75*
G02*
X110120636Y-99984823I-53033J-53033D01*
G01*
X110014570Y-100090889D01*
G75*
G02*
X109908504Y-100090889I-53033J53033D01*
G01*
X108883200Y-99065585D01*
G75*
G02*
X108883200Y-98959519I53033J53033D01*
G01*
G37*
G36*
G01*
X109236754Y-98605965D02*
X109342820Y-98499899D01*
G75*
G02*
X109448886Y-98499899I53033J-53033D01*
G01*
X110474190Y-99525203D01*
G75*
G02*
X110474190Y-99631269I-53033J-53033D01*
G01*
X110368124Y-99737335D01*
G75*
G02*
X110262058Y-99737335I-53033J53033D01*
G01*
X109236754Y-98712031D01*
G75*
G02*
X109236754Y-98605965I53033J53033D01*
G01*
G37*
G36*
G01*
X109590307Y-98252412D02*
X109696373Y-98146346D01*
G75*
G02*
X109802439Y-98146346I53033J-53033D01*
G01*
X110827743Y-99171650D01*
G75*
G02*
X110827743Y-99277716I-53033J-53033D01*
G01*
X110721677Y-99383782D01*
G75*
G02*
X110615611Y-99383782I-53033J53033D01*
G01*
X109590307Y-98358478D01*
G75*
G02*
X109590307Y-98252412I53033J53033D01*
G01*
G37*
G36*
G01*
X109943860Y-97898859D02*
X110049926Y-97792793D01*
G75*
G02*
X110155992Y-97792793I53033J-53033D01*
G01*
X111181296Y-98818097D01*
G75*
G02*
X111181296Y-98924163I-53033J-53033D01*
G01*
X111075230Y-99030229D01*
G75*
G02*
X110969164Y-99030229I-53033J53033D01*
G01*
X109943860Y-98004925D01*
G75*
G02*
X109943860Y-97898859I53033J53033D01*
G01*
G37*
G36*
G01*
X110297414Y-97545305D02*
X110403480Y-97439239D01*
G75*
G02*
X110509546Y-97439239I53033J-53033D01*
G01*
X111534850Y-98464543D01*
G75*
G02*
X111534850Y-98570609I-53033J-53033D01*
G01*
X111428784Y-98676675D01*
G75*
G02*
X111322718Y-98676675I-53033J53033D01*
G01*
X110297414Y-97651371D01*
G75*
G02*
X110297414Y-97545305I53033J53033D01*
G01*
G37*
G36*
G01*
X110650967Y-97191752D02*
X110757033Y-97085686D01*
G75*
G02*
X110863099Y-97085686I53033J-53033D01*
G01*
X111888403Y-98110990D01*
G75*
G02*
X111888403Y-98217056I-53033J-53033D01*
G01*
X111782337Y-98323122D01*
G75*
G02*
X111676271Y-98323122I-53033J53033D01*
G01*
X110650967Y-97297818D01*
G75*
G02*
X110650967Y-97191752I53033J53033D01*
G01*
G37*
G36*
G01*
X110650967Y-95742182D02*
X111676271Y-94716878D01*
G75*
G02*
X111782337Y-94716878I53033J-53033D01*
G01*
X111888403Y-94822944D01*
G75*
G02*
X111888403Y-94929010I-53033J-53033D01*
G01*
X110863099Y-95954314D01*
G75*
G02*
X110757033Y-95954314I-53033J53033D01*
G01*
X110650967Y-95848248D01*
G75*
G02*
X110650967Y-95742182I53033J53033D01*
G01*
G37*
G36*
G01*
X110297414Y-95388629D02*
X111322718Y-94363325D01*
G75*
G02*
X111428784Y-94363325I53033J-53033D01*
G01*
X111534850Y-94469391D01*
G75*
G02*
X111534850Y-94575457I-53033J-53033D01*
G01*
X110509546Y-95600761D01*
G75*
G02*
X110403480Y-95600761I-53033J53033D01*
G01*
X110297414Y-95494695D01*
G75*
G02*
X110297414Y-95388629I53033J53033D01*
G01*
G37*
G36*
G01*
X109943860Y-95035075D02*
X110969164Y-94009771D01*
G75*
G02*
X111075230Y-94009771I53033J-53033D01*
G01*
X111181296Y-94115837D01*
G75*
G02*
X111181296Y-94221903I-53033J-53033D01*
G01*
X110155992Y-95247207D01*
G75*
G02*
X110049926Y-95247207I-53033J53033D01*
G01*
X109943860Y-95141141D01*
G75*
G02*
X109943860Y-95035075I53033J53033D01*
G01*
G37*
G36*
G01*
X109590307Y-94681522D02*
X110615611Y-93656218D01*
G75*
G02*
X110721677Y-93656218I53033J-53033D01*
G01*
X110827743Y-93762284D01*
G75*
G02*
X110827743Y-93868350I-53033J-53033D01*
G01*
X109802439Y-94893654D01*
G75*
G02*
X109696373Y-94893654I-53033J53033D01*
G01*
X109590307Y-94787588D01*
G75*
G02*
X109590307Y-94681522I53033J53033D01*
G01*
G37*
G36*
G01*
X109236754Y-94327969D02*
X110262058Y-93302665D01*
G75*
G02*
X110368124Y-93302665I53033J-53033D01*
G01*
X110474190Y-93408731D01*
G75*
G02*
X110474190Y-93514797I-53033J-53033D01*
G01*
X109448886Y-94540101D01*
G75*
G02*
X109342820Y-94540101I-53033J53033D01*
G01*
X109236754Y-94434035D01*
G75*
G02*
X109236754Y-94327969I53033J53033D01*
G01*
G37*
G36*
G01*
X108883200Y-93974415D02*
X109908504Y-92949111D01*
G75*
G02*
X110014570Y-92949111I53033J-53033D01*
G01*
X110120636Y-93055177D01*
G75*
G02*
X110120636Y-93161243I-53033J-53033D01*
G01*
X109095332Y-94186547D01*
G75*
G02*
X108989266Y-94186547I-53033J53033D01*
G01*
X108883200Y-94080481D01*
G75*
G02*
X108883200Y-93974415I53033J53033D01*
G01*
G37*
G36*
G01*
X108529647Y-93620862D02*
X109554951Y-92595558D01*
G75*
G02*
X109661017Y-92595558I53033J-53033D01*
G01*
X109767083Y-92701624D01*
G75*
G02*
X109767083Y-92807690I-53033J-53033D01*
G01*
X108741779Y-93832994D01*
G75*
G02*
X108635713Y-93832994I-53033J53033D01*
G01*
X108529647Y-93726928D01*
G75*
G02*
X108529647Y-93620862I53033J53033D01*
G01*
G37*
G36*
G01*
X108176093Y-93267308D02*
X109201397Y-92242004D01*
G75*
G02*
X109307463Y-92242004I53033J-53033D01*
G01*
X109413529Y-92348070D01*
G75*
G02*
X109413529Y-92454136I-53033J-53033D01*
G01*
X108388225Y-93479440D01*
G75*
G02*
X108282159Y-93479440I-53033J53033D01*
G01*
X108176093Y-93373374D01*
G75*
G02*
X108176093Y-93267308I53033J53033D01*
G01*
G37*
G36*
G01*
X107822540Y-92913755D02*
X108847844Y-91888451D01*
G75*
G02*
X108953910Y-91888451I53033J-53033D01*
G01*
X109059976Y-91994517D01*
G75*
G02*
X109059976Y-92100583I-53033J-53033D01*
G01*
X108034672Y-93125887D01*
G75*
G02*
X107928606Y-93125887I-53033J53033D01*
G01*
X107822540Y-93019821D01*
G75*
G02*
X107822540Y-92913755I53033J53033D01*
G01*
G37*
G36*
G01*
X107468987Y-92560202D02*
X108494291Y-91534898D01*
G75*
G02*
X108600357Y-91534898I53033J-53033D01*
G01*
X108706423Y-91640964D01*
G75*
G02*
X108706423Y-91747030I-53033J-53033D01*
G01*
X107681119Y-92772334D01*
G75*
G02*
X107575053Y-92772334I-53033J53033D01*
G01*
X107468987Y-92666268D01*
G75*
G02*
X107468987Y-92560202I53033J53033D01*
G01*
G37*
G36*
G01*
X107115433Y-92206648D02*
X108140737Y-91181344D01*
G75*
G02*
X108246803Y-91181344I53033J-53033D01*
G01*
X108352869Y-91287410D01*
G75*
G02*
X108352869Y-91393476I-53033J-53033D01*
G01*
X107327565Y-92418780D01*
G75*
G02*
X107221499Y-92418780I-53033J53033D01*
G01*
X107115433Y-92312714D01*
G75*
G02*
X107115433Y-92206648I53033J53033D01*
G01*
G37*
G36*
G01*
X106761880Y-91853095D02*
X107787184Y-90827791D01*
G75*
G02*
X107893250Y-90827791I53033J-53033D01*
G01*
X107999316Y-90933857D01*
G75*
G02*
X107999316Y-91039923I-53033J-53033D01*
G01*
X106974012Y-92065227D01*
G75*
G02*
X106867946Y-92065227I-53033J53033D01*
G01*
X106761880Y-91959161D01*
G75*
G02*
X106761880Y-91853095I53033J53033D01*
G01*
G37*
G36*
G01*
X106408327Y-91499541D02*
X107433631Y-90474237D01*
G75*
G02*
X107539697Y-90474237I53033J-53033D01*
G01*
X107645763Y-90580303D01*
G75*
G02*
X107645763Y-90686369I-53033J-53033D01*
G01*
X106620459Y-91711673D01*
G75*
G02*
X106514393Y-91711673I-53033J53033D01*
G01*
X106408327Y-91605607D01*
G75*
G02*
X106408327Y-91499541I53033J53033D01*
G01*
G37*
G36*
G01*
X106054773Y-91145988D02*
X107080077Y-90120684D01*
G75*
G02*
X107186143Y-90120684I53033J-53033D01*
G01*
X107292209Y-90226750D01*
G75*
G02*
X107292209Y-90332816I-53033J-53033D01*
G01*
X106266905Y-91358120D01*
G75*
G02*
X106160839Y-91358120I-53033J53033D01*
G01*
X106054773Y-91252054D01*
G75*
G02*
X106054773Y-91145988I53033J53033D01*
G01*
G37*
G36*
G01*
X105701220Y-90792435D02*
X106726524Y-89767131D01*
G75*
G02*
X106832590Y-89767131I53033J-53033D01*
G01*
X106938656Y-89873197D01*
G75*
G02*
X106938656Y-89979263I-53033J-53033D01*
G01*
X105913352Y-91004567D01*
G75*
G02*
X105807286Y-91004567I-53033J53033D01*
G01*
X105701220Y-90898501D01*
G75*
G02*
X105701220Y-90792435I53033J53033D01*
G01*
G37*
G36*
G01*
X105347666Y-90438881D02*
X106372970Y-89413577D01*
G75*
G02*
X106479036Y-89413577I53033J-53033D01*
G01*
X106585102Y-89519643D01*
G75*
G02*
X106585102Y-89625709I-53033J-53033D01*
G01*
X105559798Y-90651013D01*
G75*
G02*
X105453732Y-90651013I-53033J53033D01*
G01*
X105347666Y-90544947D01*
G75*
G02*
X105347666Y-90438881I53033J53033D01*
G01*
G37*
G36*
G01*
X104994113Y-90085328D02*
X106019417Y-89060024D01*
G75*
G02*
X106125483Y-89060024I53033J-53033D01*
G01*
X106231549Y-89166090D01*
G75*
G02*
X106231549Y-89272156I-53033J-53033D01*
G01*
X105206245Y-90297460D01*
G75*
G02*
X105100179Y-90297460I-53033J53033D01*
G01*
X104994113Y-90191394D01*
G75*
G02*
X104994113Y-90085328I53033J53033D01*
G01*
G37*
G36*
G01*
X104640560Y-89731775D02*
X105665864Y-88706471D01*
G75*
G02*
X105771930Y-88706471I53033J-53033D01*
G01*
X105877996Y-88812537D01*
G75*
G02*
X105877996Y-88918603I-53033J-53033D01*
G01*
X104852692Y-89943907D01*
G75*
G02*
X104746626Y-89943907I-53033J53033D01*
G01*
X104640560Y-89837841D01*
G75*
G02*
X104640560Y-89731775I53033J53033D01*
G01*
G37*
G36*
G01*
X104287006Y-89378221D02*
X105312310Y-88352917D01*
G75*
G02*
X105418376Y-88352917I53033J-53033D01*
G01*
X105524442Y-88458983D01*
G75*
G02*
X105524442Y-88565049I-53033J-53033D01*
G01*
X104499138Y-89590353D01*
G75*
G02*
X104393072Y-89590353I-53033J53033D01*
G01*
X104287006Y-89484287D01*
G75*
G02*
X104287006Y-89378221I53033J53033D01*
G01*
G37*
G36*
G01*
X103933453Y-89024668D02*
X104958757Y-87999364D01*
G75*
G02*
X105064823Y-87999364I53033J-53033D01*
G01*
X105170889Y-88105430D01*
G75*
G02*
X105170889Y-88211496I-53033J-53033D01*
G01*
X104145585Y-89236800D01*
G75*
G02*
X104039519Y-89236800I-53033J53033D01*
G01*
X103933453Y-89130734D01*
G75*
G02*
X103933453Y-89024668I53033J53033D01*
G01*
G37*
G36*
G01*
X103579899Y-88671114D02*
X104605203Y-87645810D01*
G75*
G02*
X104711269Y-87645810I53033J-53033D01*
G01*
X104817335Y-87751876D01*
G75*
G02*
X104817335Y-87857942I-53033J-53033D01*
G01*
X103792031Y-88883246D01*
G75*
G02*
X103685965Y-88883246I-53033J53033D01*
G01*
X103579899Y-88777180D01*
G75*
G02*
X103579899Y-88671114I53033J53033D01*
G01*
G37*
G36*
G01*
X103226346Y-88317561D02*
X104251650Y-87292257D01*
G75*
G02*
X104357716Y-87292257I53033J-53033D01*
G01*
X104463782Y-87398323D01*
G75*
G02*
X104463782Y-87504389I-53033J-53033D01*
G01*
X103438478Y-88529693D01*
G75*
G02*
X103332412Y-88529693I-53033J53033D01*
G01*
X103226346Y-88423627D01*
G75*
G02*
X103226346Y-88317561I53033J53033D01*
G01*
G37*
G36*
G01*
X102872793Y-87964008D02*
X103898097Y-86938704D01*
G75*
G02*
X104004163Y-86938704I53033J-53033D01*
G01*
X104110229Y-87044770D01*
G75*
G02*
X104110229Y-87150836I-53033J-53033D01*
G01*
X103084925Y-88176140D01*
G75*
G02*
X102978859Y-88176140I-53033J53033D01*
G01*
X102872793Y-88070074D01*
G75*
G02*
X102872793Y-87964008I53033J53033D01*
G01*
G37*
G36*
G01*
X102519239Y-87610454D02*
X103544543Y-86585150D01*
G75*
G02*
X103650609Y-86585150I53033J-53033D01*
G01*
X103756675Y-86691216D01*
G75*
G02*
X103756675Y-86797282I-53033J-53033D01*
G01*
X102731371Y-87822586D01*
G75*
G02*
X102625305Y-87822586I-53033J53033D01*
G01*
X102519239Y-87716520D01*
G75*
G02*
X102519239Y-87610454I53033J53033D01*
G01*
G37*
G36*
G01*
X102165686Y-87256901D02*
X103190990Y-86231597D01*
G75*
G02*
X103297056Y-86231597I53033J-53033D01*
G01*
X103403122Y-86337663D01*
G75*
G02*
X103403122Y-86443729I-53033J-53033D01*
G01*
X102377818Y-87469033D01*
G75*
G02*
X102271752Y-87469033I-53033J53033D01*
G01*
X102165686Y-87362967D01*
G75*
G02*
X102165686Y-87256901I53033J53033D01*
G01*
G37*
%TD*%
D13*
%TO.C,J19*%
X66040000Y-119340000D03*
X63500000Y-119340000D03*
X66040000Y-116800000D03*
X63500000Y-116800000D03*
X66040000Y-114260000D03*
X63500000Y-114260000D03*
X66040000Y-111720000D03*
X63500000Y-111720000D03*
X66040000Y-109180000D03*
X63500000Y-109180000D03*
X66040000Y-106640000D03*
X63500000Y-106640000D03*
X66040000Y-104100000D03*
X63500000Y-104100000D03*
X66040000Y-101560000D03*
X63500000Y-101560000D03*
X66040000Y-99020000D03*
X63500000Y-99020000D03*
X66040000Y-96480000D03*
X63500000Y-96480000D03*
X66040000Y-93940000D03*
X63500000Y-93940000D03*
X66040000Y-91400000D03*
X63500000Y-91400000D03*
X66040000Y-88860000D03*
X63500000Y-88860000D03*
X66040000Y-86320000D03*
X63500000Y-86320000D03*
X66040000Y-83780000D03*
X63500000Y-83780000D03*
X66040000Y-81240000D03*
X63500000Y-81240000D03*
X66040000Y-78700000D03*
D14*
X63500000Y-78700000D03*
%TD*%
D15*
%TO.C,BT1*%
X65760600Y-63564600D03*
X65760600Y-56064600D03*
D16*
X65760600Y-67664600D03*
X65760600Y-51664600D03*
%TD*%
%TO.C,R3*%
G36*
G01*
X33628780Y-100189620D02*
X33628780Y-100739620D01*
G75*
G02*
X33428780Y-100939620I-200000J0D01*
G01*
X33028780Y-100939620D01*
G75*
G02*
X32828780Y-100739620I0J200000D01*
G01*
X32828780Y-100189620D01*
G75*
G02*
X33028780Y-99989620I200000J0D01*
G01*
X33428780Y-99989620D01*
G75*
G02*
X33628780Y-100189620I0J-200000D01*
G01*
G37*
G36*
G01*
X35278780Y-100189620D02*
X35278780Y-100739620D01*
G75*
G02*
X35078780Y-100939620I-200000J0D01*
G01*
X34678780Y-100939620D01*
G75*
G02*
X34478780Y-100739620I0J200000D01*
G01*
X34478780Y-100189620D01*
G75*
G02*
X34678780Y-99989620I200000J0D01*
G01*
X35078780Y-99989620D01*
G75*
G02*
X35278780Y-100189620I0J-200000D01*
G01*
G37*
%TD*%
D17*
%TO.C,Buzzer1*%
X111434880Y-38452240D03*
X111434880Y-32952240D03*
%TD*%
%TO.C,C2*%
G36*
G01*
X135235760Y-43929420D02*
X134735760Y-43929420D01*
G75*
G02*
X134510760Y-43704420I0J225000D01*
G01*
X134510760Y-43254420D01*
G75*
G02*
X134735760Y-43029420I225000J0D01*
G01*
X135235760Y-43029420D01*
G75*
G02*
X135460760Y-43254420I0J-225000D01*
G01*
X135460760Y-43704420D01*
G75*
G02*
X135235760Y-43929420I-225000J0D01*
G01*
G37*
G36*
G01*
X135235760Y-45479420D02*
X134735760Y-45479420D01*
G75*
G02*
X134510760Y-45254420I0J225000D01*
G01*
X134510760Y-44804420D01*
G75*
G02*
X134735760Y-44579420I225000J0D01*
G01*
X135235760Y-44579420D01*
G75*
G02*
X135460760Y-44804420I0J-225000D01*
G01*
X135460760Y-45254420D01*
G75*
G02*
X135235760Y-45479420I-225000J0D01*
G01*
G37*
%TD*%
D18*
%TO.C,U1*%
X137055860Y-43492720D03*
X138325860Y-43492720D03*
X139595860Y-43492720D03*
X140865860Y-43492720D03*
X140865860Y-48292720D03*
X139595860Y-48292720D03*
X138325860Y-48292720D03*
X137055860Y-48292720D03*
%TD*%
%TO.C,U6*%
X145859500Y-66561000D03*
X147129500Y-66561000D03*
X148399500Y-66561000D03*
X149669500Y-66561000D03*
X145859500Y-71361000D03*
X147129500Y-71361000D03*
X148399500Y-71361000D03*
X149669500Y-71361000D03*
X150939500Y-71361000D03*
X152209500Y-71361000D03*
X153479500Y-71361000D03*
X154749500Y-71361000D03*
X154749500Y-66561000D03*
X153479500Y-66561000D03*
X152209500Y-66561000D03*
X150939500Y-66561000D03*
%TD*%
D19*
%TO.C,Y2*%
X92984000Y-82804000D03*
X95484000Y-82804000D03*
%TD*%
D20*
%TO.C,REF\u002A\u002A*%
X71213420Y-38441460D03*
%TD*%
%TO.C,REF\u002A\u002A*%
X123213420Y-38441460D03*
%TD*%
%TO.C,REF\u002A\u002A*%
X121213420Y-46441460D03*
%TD*%
%TO.C,REF\u002A\u002A*%
X73213420Y-46441460D03*
%TD*%
%TO.C,D5*%
G36*
G01*
X148393620Y-95200790D02*
X148393620Y-94288290D01*
G75*
G02*
X148637370Y-94044540I243750J0D01*
G01*
X149124870Y-94044540D01*
G75*
G02*
X149368620Y-94288290I0J-243750D01*
G01*
X149368620Y-95200790D01*
G75*
G02*
X149124870Y-95444540I-243750J0D01*
G01*
X148637370Y-95444540D01*
G75*
G02*
X148393620Y-95200790I0J243750D01*
G01*
G37*
G36*
G01*
X146518620Y-95200790D02*
X146518620Y-94288290D01*
G75*
G02*
X146762370Y-94044540I243750J0D01*
G01*
X147249870Y-94044540D01*
G75*
G02*
X147493620Y-94288290I0J-243750D01*
G01*
X147493620Y-95200790D01*
G75*
G02*
X147249870Y-95444540I-243750J0D01*
G01*
X146762370Y-95444540D01*
G75*
G02*
X146518620Y-95200790I0J243750D01*
G01*
G37*
%TD*%
%TO.C,D4*%
G36*
G01*
X148393620Y-92152790D02*
X148393620Y-91240290D01*
G75*
G02*
X148637370Y-90996540I243750J0D01*
G01*
X149124870Y-90996540D01*
G75*
G02*
X149368620Y-91240290I0J-243750D01*
G01*
X149368620Y-92152790D01*
G75*
G02*
X149124870Y-92396540I-243750J0D01*
G01*
X148637370Y-92396540D01*
G75*
G02*
X148393620Y-92152790I0J243750D01*
G01*
G37*
G36*
G01*
X146518620Y-92152790D02*
X146518620Y-91240290D01*
G75*
G02*
X146762370Y-90996540I243750J0D01*
G01*
X147249870Y-90996540D01*
G75*
G02*
X147493620Y-91240290I0J-243750D01*
G01*
X147493620Y-92152790D01*
G75*
G02*
X147249870Y-92396540I-243750J0D01*
G01*
X146762370Y-92396540D01*
G75*
G02*
X146518620Y-92152790I0J243750D01*
G01*
G37*
%TD*%
%TO.C,D3*%
G36*
G01*
X152267500Y-60186250D02*
X152267500Y-61098750D01*
G75*
G02*
X152023750Y-61342500I-243750J0D01*
G01*
X151536250Y-61342500D01*
G75*
G02*
X151292500Y-61098750I0J243750D01*
G01*
X151292500Y-60186250D01*
G75*
G02*
X151536250Y-59942500I243750J0D01*
G01*
X152023750Y-59942500D01*
G75*
G02*
X152267500Y-60186250I0J-243750D01*
G01*
G37*
G36*
G01*
X154142500Y-60186250D02*
X154142500Y-61098750D01*
G75*
G02*
X153898750Y-61342500I-243750J0D01*
G01*
X153411250Y-61342500D01*
G75*
G02*
X153167500Y-61098750I0J243750D01*
G01*
X153167500Y-60186250D01*
G75*
G02*
X153411250Y-59942500I243750J0D01*
G01*
X153898750Y-59942500D01*
G75*
G02*
X154142500Y-60186250I0J-243750D01*
G01*
G37*
%TD*%
D13*
%TO.C,D1*%
X44165520Y-125232160D03*
D14*
X44165520Y-122692160D03*
%TD*%
D21*
%TO.C,D7*%
X92710000Y-67691000D03*
X92710000Y-71191000D03*
%TD*%
%TO.C,D6*%
X96342200Y-67691000D03*
X96342200Y-71191000D03*
%TD*%
D20*
%TO.C,REF\u002A\u002A*%
X33500000Y-134500000D03*
%TD*%
%TO.C,REF\u002A\u002A*%
X164655500Y-134747000D03*
%TD*%
%TO.C,REF\u002A\u002A*%
X33500000Y-33500000D03*
%TD*%
%TO.C,REF\u002A\u002A*%
X164500000Y-33500000D03*
%TD*%
D22*
%TO.C,Y3*%
X86060000Y-82504000D03*
X89510681Y-79053319D03*
%TD*%
%TO.C,Y1*%
X151177600Y-80037940D03*
X156057600Y-80037940D03*
%TD*%
D23*
%TO.C,U8*%
X143332500Y-120078500D03*
X143332500Y-118808500D03*
X143332500Y-117538500D03*
X143332500Y-116268500D03*
X148132500Y-120078500D03*
X148132500Y-118808500D03*
X148132500Y-117538500D03*
X148132500Y-116268500D03*
X148132500Y-114998500D03*
X148132500Y-113728500D03*
X148132500Y-112458500D03*
X148132500Y-111188500D03*
X143332500Y-111188500D03*
X143332500Y-112458500D03*
X143332500Y-113728500D03*
X143332500Y-114998500D03*
%TD*%
D18*
%TO.C,U5*%
X129202180Y-42778980D03*
X130472180Y-42778980D03*
X131742180Y-42778980D03*
X133012180Y-42778980D03*
X133012180Y-47578980D03*
X131742180Y-47578980D03*
X130472180Y-47578980D03*
X129202180Y-47578980D03*
%TD*%
D23*
%TO.C,U4*%
X43891500Y-81102200D03*
X43891500Y-79832200D03*
X43891500Y-78562200D03*
X43891500Y-77292200D03*
X48691500Y-77292200D03*
X48691500Y-78562200D03*
X48691500Y-79832200D03*
X48691500Y-81102200D03*
%TD*%
D24*
%TO.C,U3*%
X103321660Y-55429700D03*
X102121660Y-55429700D03*
D25*
X100821660Y-55429700D03*
X99191660Y-55429700D03*
X96691660Y-55429700D03*
X94191660Y-55429700D03*
X91691660Y-55429700D03*
X89191660Y-55429700D03*
X86691660Y-55429700D03*
X84191660Y-55429700D03*
X81691660Y-55429700D03*
D13*
X81571660Y-52389700D03*
D26*
X102571660Y-52389700D03*
D27*
X79221660Y-53389700D03*
X104721660Y-53389700D03*
X77421660Y-31889700D03*
X104721660Y-31889700D03*
%TD*%
D18*
%TO.C,U2*%
X33337500Y-90009160D03*
X34607500Y-90009160D03*
X35877500Y-90009160D03*
X37147500Y-90009160D03*
X37147500Y-97209160D03*
X35877500Y-97209160D03*
X34607500Y-97209160D03*
X33337500Y-97209160D03*
%TD*%
D12*
%TO.C,SW5*%
X107423500Y-130528500D03*
X116223500Y-130528500D03*
X116223500Y-135028500D03*
X107423500Y-135028500D03*
%TD*%
%TO.C,SW4*%
X93072500Y-130528500D03*
X101872500Y-130528500D03*
X101872500Y-135028500D03*
X93072500Y-135028500D03*
%TD*%
%TO.C,SW3*%
X63595800Y-130414200D03*
X72395800Y-130414200D03*
X72395800Y-134914200D03*
X63595800Y-134914200D03*
%TD*%
D28*
%TO.C,SW1*%
X160187000Y-50340000D03*
X160187000Y-53340000D03*
X160187000Y-56340000D03*
X165187000Y-50340000D03*
X165187000Y-53340000D03*
X165187000Y-56340000D03*
%TD*%
%TO.C,R30*%
G36*
G01*
X87967000Y-86339000D02*
X87967000Y-86889000D01*
G75*
G02*
X87767000Y-87089000I-200000J0D01*
G01*
X87367000Y-87089000D01*
G75*
G02*
X87167000Y-86889000I0J200000D01*
G01*
X87167000Y-86339000D01*
G75*
G02*
X87367000Y-86139000I200000J0D01*
G01*
X87767000Y-86139000D01*
G75*
G02*
X87967000Y-86339000I0J-200000D01*
G01*
G37*
G36*
G01*
X89617000Y-86339000D02*
X89617000Y-86889000D01*
G75*
G02*
X89417000Y-87089000I-200000J0D01*
G01*
X89017000Y-87089000D01*
G75*
G02*
X88817000Y-86889000I0J200000D01*
G01*
X88817000Y-86339000D01*
G75*
G02*
X89017000Y-86139000I200000J0D01*
G01*
X89417000Y-86139000D01*
G75*
G02*
X89617000Y-86339000I0J-200000D01*
G01*
G37*
%TD*%
%TO.C,R29*%
G36*
G01*
X80118400Y-91584100D02*
X80118400Y-92134100D01*
G75*
G02*
X79918400Y-92334100I-200000J0D01*
G01*
X79518400Y-92334100D01*
G75*
G02*
X79318400Y-92134100I0J200000D01*
G01*
X79318400Y-91584100D01*
G75*
G02*
X79518400Y-91384100I200000J0D01*
G01*
X79918400Y-91384100D01*
G75*
G02*
X80118400Y-91584100I0J-200000D01*
G01*
G37*
G36*
G01*
X81768400Y-91584100D02*
X81768400Y-92134100D01*
G75*
G02*
X81568400Y-92334100I-200000J0D01*
G01*
X81168400Y-92334100D01*
G75*
G02*
X80968400Y-92134100I0J200000D01*
G01*
X80968400Y-91584100D01*
G75*
G02*
X81168400Y-91384100I200000J0D01*
G01*
X81568400Y-91384100D01*
G75*
G02*
X81768400Y-91584100I0J-200000D01*
G01*
G37*
%TD*%
%TO.C,R28*%
G36*
G01*
X89020200Y-92159500D02*
X89020200Y-91609500D01*
G75*
G02*
X89220200Y-91409500I200000J0D01*
G01*
X89620200Y-91409500D01*
G75*
G02*
X89820200Y-91609500I0J-200000D01*
G01*
X89820200Y-92159500D01*
G75*
G02*
X89620200Y-92359500I-200000J0D01*
G01*
X89220200Y-92359500D01*
G75*
G02*
X89020200Y-92159500I0J200000D01*
G01*
G37*
G36*
G01*
X87370200Y-92159500D02*
X87370200Y-91609500D01*
G75*
G02*
X87570200Y-91409500I200000J0D01*
G01*
X87970200Y-91409500D01*
G75*
G02*
X88170200Y-91609500I0J-200000D01*
G01*
X88170200Y-92159500D01*
G75*
G02*
X87970200Y-92359500I-200000J0D01*
G01*
X87570200Y-92359500D01*
G75*
G02*
X87370200Y-92159500I0J200000D01*
G01*
G37*
%TD*%
%TO.C,R27*%
G36*
G01*
X56089100Y-126462200D02*
X56089100Y-125912200D01*
G75*
G02*
X56289100Y-125712200I200000J0D01*
G01*
X56689100Y-125712200D01*
G75*
G02*
X56889100Y-125912200I0J-200000D01*
G01*
X56889100Y-126462200D01*
G75*
G02*
X56689100Y-126662200I-200000J0D01*
G01*
X56289100Y-126662200D01*
G75*
G02*
X56089100Y-126462200I0J200000D01*
G01*
G37*
G36*
G01*
X54439100Y-126462200D02*
X54439100Y-125912200D01*
G75*
G02*
X54639100Y-125712200I200000J0D01*
G01*
X55039100Y-125712200D01*
G75*
G02*
X55239100Y-125912200I0J-200000D01*
G01*
X55239100Y-126462200D01*
G75*
G02*
X55039100Y-126662200I-200000J0D01*
G01*
X54639100Y-126662200D01*
G75*
G02*
X54439100Y-126462200I0J200000D01*
G01*
G37*
%TD*%
%TO.C,R26*%
G36*
G01*
X55645500Y-136427800D02*
X55645500Y-136977800D01*
G75*
G02*
X55445500Y-137177800I-200000J0D01*
G01*
X55045500Y-137177800D01*
G75*
G02*
X54845500Y-136977800I0J200000D01*
G01*
X54845500Y-136427800D01*
G75*
G02*
X55045500Y-136227800I200000J0D01*
G01*
X55445500Y-136227800D01*
G75*
G02*
X55645500Y-136427800I0J-200000D01*
G01*
G37*
G36*
G01*
X57295500Y-136427800D02*
X57295500Y-136977800D01*
G75*
G02*
X57095500Y-137177800I-200000J0D01*
G01*
X56695500Y-137177800D01*
G75*
G02*
X56495500Y-136977800I0J200000D01*
G01*
X56495500Y-136427800D01*
G75*
G02*
X56695500Y-136227800I200000J0D01*
G01*
X57095500Y-136227800D01*
G75*
G02*
X57295500Y-136427800I0J-200000D01*
G01*
G37*
%TD*%
%TO.C,R25*%
G36*
G01*
X147639220Y-96839360D02*
X147639220Y-97389360D01*
G75*
G02*
X147439220Y-97589360I-200000J0D01*
G01*
X147039220Y-97589360D01*
G75*
G02*
X146839220Y-97389360I0J200000D01*
G01*
X146839220Y-96839360D01*
G75*
G02*
X147039220Y-96639360I200000J0D01*
G01*
X147439220Y-96639360D01*
G75*
G02*
X147639220Y-96839360I0J-200000D01*
G01*
G37*
G36*
G01*
X149289220Y-96839360D02*
X149289220Y-97389360D01*
G75*
G02*
X149089220Y-97589360I-200000J0D01*
G01*
X148689220Y-97589360D01*
G75*
G02*
X148489220Y-97389360I0J200000D01*
G01*
X148489220Y-96839360D01*
G75*
G02*
X148689220Y-96639360I200000J0D01*
G01*
X149089220Y-96639360D01*
G75*
G02*
X149289220Y-96839360I0J-200000D01*
G01*
G37*
%TD*%
%TO.C,R24*%
G36*
G01*
X147700180Y-88053500D02*
X147700180Y-88603500D01*
G75*
G02*
X147500180Y-88803500I-200000J0D01*
G01*
X147100180Y-88803500D01*
G75*
G02*
X146900180Y-88603500I0J200000D01*
G01*
X146900180Y-88053500D01*
G75*
G02*
X147100180Y-87853500I200000J0D01*
G01*
X147500180Y-87853500D01*
G75*
G02*
X147700180Y-88053500I0J-200000D01*
G01*
G37*
G36*
G01*
X149350180Y-88053500D02*
X149350180Y-88603500D01*
G75*
G02*
X149150180Y-88803500I-200000J0D01*
G01*
X148750180Y-88803500D01*
G75*
G02*
X148550180Y-88603500I0J200000D01*
G01*
X148550180Y-88053500D01*
G75*
G02*
X148750180Y-87853500I200000J0D01*
G01*
X149150180Y-87853500D01*
G75*
G02*
X149350180Y-88053500I0J-200000D01*
G01*
G37*
%TD*%
%TO.C,R23*%
G36*
G01*
X115326980Y-50140280D02*
X115326980Y-49590280D01*
G75*
G02*
X115526980Y-49390280I200000J0D01*
G01*
X115926980Y-49390280D01*
G75*
G02*
X116126980Y-49590280I0J-200000D01*
G01*
X116126980Y-50140280D01*
G75*
G02*
X115926980Y-50340280I-200000J0D01*
G01*
X115526980Y-50340280D01*
G75*
G02*
X115326980Y-50140280I0J200000D01*
G01*
G37*
G36*
G01*
X113676980Y-50140280D02*
X113676980Y-49590280D01*
G75*
G02*
X113876980Y-49390280I200000J0D01*
G01*
X114276980Y-49390280D01*
G75*
G02*
X114476980Y-49590280I0J-200000D01*
G01*
X114476980Y-50140280D01*
G75*
G02*
X114276980Y-50340280I-200000J0D01*
G01*
X113876980Y-50340280D01*
G75*
G02*
X113676980Y-50140280I0J200000D01*
G01*
G37*
%TD*%
%TO.C,R22*%
G36*
G01*
X113670900Y-47595200D02*
X113670900Y-47045200D01*
G75*
G02*
X113870900Y-46845200I200000J0D01*
G01*
X114270900Y-46845200D01*
G75*
G02*
X114470900Y-47045200I0J-200000D01*
G01*
X114470900Y-47595200D01*
G75*
G02*
X114270900Y-47795200I-200000J0D01*
G01*
X113870900Y-47795200D01*
G75*
G02*
X113670900Y-47595200I0J200000D01*
G01*
G37*
G36*
G01*
X112020900Y-47595200D02*
X112020900Y-47045200D01*
G75*
G02*
X112220900Y-46845200I200000J0D01*
G01*
X112620900Y-46845200D01*
G75*
G02*
X112820900Y-47045200I0J-200000D01*
G01*
X112820900Y-47595200D01*
G75*
G02*
X112620900Y-47795200I-200000J0D01*
G01*
X112220900Y-47795200D01*
G75*
G02*
X112020900Y-47595200I0J200000D01*
G01*
G37*
%TD*%
%TO.C,R21*%
G36*
G01*
X117722200Y-121496500D02*
X117722200Y-120946500D01*
G75*
G02*
X117922200Y-120746500I200000J0D01*
G01*
X118322200Y-120746500D01*
G75*
G02*
X118522200Y-120946500I0J-200000D01*
G01*
X118522200Y-121496500D01*
G75*
G02*
X118322200Y-121696500I-200000J0D01*
G01*
X117922200Y-121696500D01*
G75*
G02*
X117722200Y-121496500I0J200000D01*
G01*
G37*
G36*
G01*
X116072200Y-121496500D02*
X116072200Y-120946500D01*
G75*
G02*
X116272200Y-120746500I200000J0D01*
G01*
X116672200Y-120746500D01*
G75*
G02*
X116872200Y-120946500I0J-200000D01*
G01*
X116872200Y-121496500D01*
G75*
G02*
X116672200Y-121696500I-200000J0D01*
G01*
X116272200Y-121696500D01*
G75*
G02*
X116072200Y-121496500I0J200000D01*
G01*
G37*
%TD*%
%TO.C,R20*%
G36*
G01*
X155175540Y-88931300D02*
X155725540Y-88931300D01*
G75*
G02*
X155925540Y-89131300I0J-200000D01*
G01*
X155925540Y-89531300D01*
G75*
G02*
X155725540Y-89731300I-200000J0D01*
G01*
X155175540Y-89731300D01*
G75*
G02*
X154975540Y-89531300I0J200000D01*
G01*
X154975540Y-89131300D01*
G75*
G02*
X155175540Y-88931300I200000J0D01*
G01*
G37*
G36*
G01*
X155175540Y-87281300D02*
X155725540Y-87281300D01*
G75*
G02*
X155925540Y-87481300I0J-200000D01*
G01*
X155925540Y-87881300D01*
G75*
G02*
X155725540Y-88081300I-200000J0D01*
G01*
X155175540Y-88081300D01*
G75*
G02*
X154975540Y-87881300I0J200000D01*
G01*
X154975540Y-87481300D01*
G75*
G02*
X155175540Y-87281300I200000J0D01*
G01*
G37*
%TD*%
%TO.C,R19*%
G36*
G01*
X75010600Y-126028000D02*
X75560600Y-126028000D01*
G75*
G02*
X75760600Y-126228000I0J-200000D01*
G01*
X75760600Y-126628000D01*
G75*
G02*
X75560600Y-126828000I-200000J0D01*
G01*
X75010600Y-126828000D01*
G75*
G02*
X74810600Y-126628000I0J200000D01*
G01*
X74810600Y-126228000D01*
G75*
G02*
X75010600Y-126028000I200000J0D01*
G01*
G37*
G36*
G01*
X75010600Y-124378000D02*
X75560600Y-124378000D01*
G75*
G02*
X75760600Y-124578000I0J-200000D01*
G01*
X75760600Y-124978000D01*
G75*
G02*
X75560600Y-125178000I-200000J0D01*
G01*
X75010600Y-125178000D01*
G75*
G02*
X74810600Y-124978000I0J200000D01*
G01*
X74810600Y-124578000D01*
G75*
G02*
X75010600Y-124378000I200000J0D01*
G01*
G37*
%TD*%
%TO.C,R18*%
G36*
G01*
X147784000Y-60431000D02*
X147784000Y-60981000D01*
G75*
G02*
X147584000Y-61181000I-200000J0D01*
G01*
X147184000Y-61181000D01*
G75*
G02*
X146984000Y-60981000I0J200000D01*
G01*
X146984000Y-60431000D01*
G75*
G02*
X147184000Y-60231000I200000J0D01*
G01*
X147584000Y-60231000D01*
G75*
G02*
X147784000Y-60431000I0J-200000D01*
G01*
G37*
G36*
G01*
X149434000Y-60431000D02*
X149434000Y-60981000D01*
G75*
G02*
X149234000Y-61181000I-200000J0D01*
G01*
X148834000Y-61181000D01*
G75*
G02*
X148634000Y-60981000I0J200000D01*
G01*
X148634000Y-60431000D01*
G75*
G02*
X148834000Y-60231000I200000J0D01*
G01*
X149234000Y-60231000D01*
G75*
G02*
X149434000Y-60431000I0J-200000D01*
G01*
G37*
%TD*%
%TO.C,R17*%
G36*
G01*
X141252620Y-67687640D02*
X140702620Y-67687640D01*
G75*
G02*
X140502620Y-67487640I0J200000D01*
G01*
X140502620Y-67087640D01*
G75*
G02*
X140702620Y-66887640I200000J0D01*
G01*
X141252620Y-66887640D01*
G75*
G02*
X141452620Y-67087640I0J-200000D01*
G01*
X141452620Y-67487640D01*
G75*
G02*
X141252620Y-67687640I-200000J0D01*
G01*
G37*
G36*
G01*
X141252620Y-69337640D02*
X140702620Y-69337640D01*
G75*
G02*
X140502620Y-69137640I0J200000D01*
G01*
X140502620Y-68737640D01*
G75*
G02*
X140702620Y-68537640I200000J0D01*
G01*
X141252620Y-68537640D01*
G75*
G02*
X141452620Y-68737640I0J-200000D01*
G01*
X141452620Y-69137640D01*
G75*
G02*
X141252620Y-69337640I-200000J0D01*
G01*
G37*
%TD*%
%TO.C,R16*%
G36*
G01*
X38223780Y-107546960D02*
X38773780Y-107546960D01*
G75*
G02*
X38973780Y-107746960I0J-200000D01*
G01*
X38973780Y-108146960D01*
G75*
G02*
X38773780Y-108346960I-200000J0D01*
G01*
X38223780Y-108346960D01*
G75*
G02*
X38023780Y-108146960I0J200000D01*
G01*
X38023780Y-107746960D01*
G75*
G02*
X38223780Y-107546960I200000J0D01*
G01*
G37*
G36*
G01*
X38223780Y-105896960D02*
X38773780Y-105896960D01*
G75*
G02*
X38973780Y-106096960I0J-200000D01*
G01*
X38973780Y-106496960D01*
G75*
G02*
X38773780Y-106696960I-200000J0D01*
G01*
X38223780Y-106696960D01*
G75*
G02*
X38023780Y-106496960I0J200000D01*
G01*
X38023780Y-106096960D01*
G75*
G02*
X38223780Y-105896960I200000J0D01*
G01*
G37*
%TD*%
%TO.C,R15*%
G36*
G01*
X147138840Y-63219920D02*
X147138840Y-63769920D01*
G75*
G02*
X146938840Y-63969920I-200000J0D01*
G01*
X146538840Y-63969920D01*
G75*
G02*
X146338840Y-63769920I0J200000D01*
G01*
X146338840Y-63219920D01*
G75*
G02*
X146538840Y-63019920I200000J0D01*
G01*
X146938840Y-63019920D01*
G75*
G02*
X147138840Y-63219920I0J-200000D01*
G01*
G37*
G36*
G01*
X148788840Y-63219920D02*
X148788840Y-63769920D01*
G75*
G02*
X148588840Y-63969920I-200000J0D01*
G01*
X148188840Y-63969920D01*
G75*
G02*
X147988840Y-63769920I0J200000D01*
G01*
X147988840Y-63219920D01*
G75*
G02*
X148188840Y-63019920I200000J0D01*
G01*
X148588840Y-63019920D01*
G75*
G02*
X148788840Y-63219920I0J-200000D01*
G01*
G37*
%TD*%
%TO.C,R14*%
G36*
G01*
X81948700Y-61474800D02*
X81398700Y-61474800D01*
G75*
G02*
X81198700Y-61274800I0J200000D01*
G01*
X81198700Y-60874800D01*
G75*
G02*
X81398700Y-60674800I200000J0D01*
G01*
X81948700Y-60674800D01*
G75*
G02*
X82148700Y-60874800I0J-200000D01*
G01*
X82148700Y-61274800D01*
G75*
G02*
X81948700Y-61474800I-200000J0D01*
G01*
G37*
G36*
G01*
X81948700Y-63124800D02*
X81398700Y-63124800D01*
G75*
G02*
X81198700Y-62924800I0J200000D01*
G01*
X81198700Y-62524800D01*
G75*
G02*
X81398700Y-62324800I200000J0D01*
G01*
X81948700Y-62324800D01*
G75*
G02*
X82148700Y-62524800I0J-200000D01*
G01*
X82148700Y-62924800D01*
G75*
G02*
X81948700Y-63124800I-200000J0D01*
G01*
G37*
%TD*%
%TO.C,R13*%
G36*
G01*
X101697200Y-61373200D02*
X101147200Y-61373200D01*
G75*
G02*
X100947200Y-61173200I0J200000D01*
G01*
X100947200Y-60773200D01*
G75*
G02*
X101147200Y-60573200I200000J0D01*
G01*
X101697200Y-60573200D01*
G75*
G02*
X101897200Y-60773200I0J-200000D01*
G01*
X101897200Y-61173200D01*
G75*
G02*
X101697200Y-61373200I-200000J0D01*
G01*
G37*
G36*
G01*
X101697200Y-63023200D02*
X101147200Y-63023200D01*
G75*
G02*
X100947200Y-62823200I0J200000D01*
G01*
X100947200Y-62423200D01*
G75*
G02*
X101147200Y-62223200I200000J0D01*
G01*
X101697200Y-62223200D01*
G75*
G02*
X101897200Y-62423200I0J-200000D01*
G01*
X101897200Y-62823200D01*
G75*
G02*
X101697200Y-63023200I-200000J0D01*
G01*
G37*
%TD*%
%TO.C,R12*%
G36*
G01*
X99487400Y-61449400D02*
X98937400Y-61449400D01*
G75*
G02*
X98737400Y-61249400I0J200000D01*
G01*
X98737400Y-60849400D01*
G75*
G02*
X98937400Y-60649400I200000J0D01*
G01*
X99487400Y-60649400D01*
G75*
G02*
X99687400Y-60849400I0J-200000D01*
G01*
X99687400Y-61249400D01*
G75*
G02*
X99487400Y-61449400I-200000J0D01*
G01*
G37*
G36*
G01*
X99487400Y-63099400D02*
X98937400Y-63099400D01*
G75*
G02*
X98737400Y-62899400I0J200000D01*
G01*
X98737400Y-62499400D01*
G75*
G02*
X98937400Y-62299400I200000J0D01*
G01*
X99487400Y-62299400D01*
G75*
G02*
X99687400Y-62499400I0J-200000D01*
G01*
X99687400Y-62899400D01*
G75*
G02*
X99487400Y-63099400I-200000J0D01*
G01*
G37*
%TD*%
%TO.C,R11*%
G36*
G01*
X86939800Y-61500200D02*
X86389800Y-61500200D01*
G75*
G02*
X86189800Y-61300200I0J200000D01*
G01*
X86189800Y-60900200D01*
G75*
G02*
X86389800Y-60700200I200000J0D01*
G01*
X86939800Y-60700200D01*
G75*
G02*
X87139800Y-60900200I0J-200000D01*
G01*
X87139800Y-61300200D01*
G75*
G02*
X86939800Y-61500200I-200000J0D01*
G01*
G37*
G36*
G01*
X86939800Y-63150200D02*
X86389800Y-63150200D01*
G75*
G02*
X86189800Y-62950200I0J200000D01*
G01*
X86189800Y-62550200D01*
G75*
G02*
X86389800Y-62350200I200000J0D01*
G01*
X86939800Y-62350200D01*
G75*
G02*
X87139800Y-62550200I0J-200000D01*
G01*
X87139800Y-62950200D01*
G75*
G02*
X86939800Y-63150200I-200000J0D01*
G01*
G37*
%TD*%
%TO.C,R10*%
G36*
G01*
X84476000Y-61462100D02*
X83926000Y-61462100D01*
G75*
G02*
X83726000Y-61262100I0J200000D01*
G01*
X83726000Y-60862100D01*
G75*
G02*
X83926000Y-60662100I200000J0D01*
G01*
X84476000Y-60662100D01*
G75*
G02*
X84676000Y-60862100I0J-200000D01*
G01*
X84676000Y-61262100D01*
G75*
G02*
X84476000Y-61462100I-200000J0D01*
G01*
G37*
G36*
G01*
X84476000Y-63112100D02*
X83926000Y-63112100D01*
G75*
G02*
X83726000Y-62912100I0J200000D01*
G01*
X83726000Y-62512100D01*
G75*
G02*
X83926000Y-62312100I200000J0D01*
G01*
X84476000Y-62312100D01*
G75*
G02*
X84676000Y-62512100I0J-200000D01*
G01*
X84676000Y-62912100D01*
G75*
G02*
X84476000Y-63112100I-200000J0D01*
G01*
G37*
%TD*%
%TO.C,R9*%
G36*
G01*
X47454000Y-83087800D02*
X47454000Y-83637800D01*
G75*
G02*
X47254000Y-83837800I-200000J0D01*
G01*
X46854000Y-83837800D01*
G75*
G02*
X46654000Y-83637800I0J200000D01*
G01*
X46654000Y-83087800D01*
G75*
G02*
X46854000Y-82887800I200000J0D01*
G01*
X47254000Y-82887800D01*
G75*
G02*
X47454000Y-83087800I0J-200000D01*
G01*
G37*
G36*
G01*
X49104000Y-83087800D02*
X49104000Y-83637800D01*
G75*
G02*
X48904000Y-83837800I-200000J0D01*
G01*
X48504000Y-83837800D01*
G75*
G02*
X48304000Y-83637800I0J200000D01*
G01*
X48304000Y-83087800D01*
G75*
G02*
X48504000Y-82887800I200000J0D01*
G01*
X48904000Y-82887800D01*
G75*
G02*
X49104000Y-83087800I0J-200000D01*
G01*
G37*
%TD*%
%TO.C,R8*%
G36*
G01*
X41248920Y-84514240D02*
X41798920Y-84514240D01*
G75*
G02*
X41998920Y-84714240I0J-200000D01*
G01*
X41998920Y-85114240D01*
G75*
G02*
X41798920Y-85314240I-200000J0D01*
G01*
X41248920Y-85314240D01*
G75*
G02*
X41048920Y-85114240I0J200000D01*
G01*
X41048920Y-84714240D01*
G75*
G02*
X41248920Y-84514240I200000J0D01*
G01*
G37*
G36*
G01*
X41248920Y-82864240D02*
X41798920Y-82864240D01*
G75*
G02*
X41998920Y-83064240I0J-200000D01*
G01*
X41998920Y-83464240D01*
G75*
G02*
X41798920Y-83664240I-200000J0D01*
G01*
X41248920Y-83664240D01*
G75*
G02*
X41048920Y-83464240I0J200000D01*
G01*
X41048920Y-83064240D01*
G75*
G02*
X41248920Y-82864240I200000J0D01*
G01*
G37*
%TD*%
%TO.C,R7*%
G36*
G01*
X131738820Y-39387100D02*
X131738820Y-39937100D01*
G75*
G02*
X131538820Y-40137100I-200000J0D01*
G01*
X131138820Y-40137100D01*
G75*
G02*
X130938820Y-39937100I0J200000D01*
G01*
X130938820Y-39387100D01*
G75*
G02*
X131138820Y-39187100I200000J0D01*
G01*
X131538820Y-39187100D01*
G75*
G02*
X131738820Y-39387100I0J-200000D01*
G01*
G37*
G36*
G01*
X133388820Y-39387100D02*
X133388820Y-39937100D01*
G75*
G02*
X133188820Y-40137100I-200000J0D01*
G01*
X132788820Y-40137100D01*
G75*
G02*
X132588820Y-39937100I0J200000D01*
G01*
X132588820Y-39387100D01*
G75*
G02*
X132788820Y-39187100I200000J0D01*
G01*
X133188820Y-39187100D01*
G75*
G02*
X133388820Y-39387100I0J-200000D01*
G01*
G37*
%TD*%
%TO.C,R6*%
G36*
G01*
X138210740Y-38642880D02*
X138210740Y-39192880D01*
G75*
G02*
X138010740Y-39392880I-200000J0D01*
G01*
X137610740Y-39392880D01*
G75*
G02*
X137410740Y-39192880I0J200000D01*
G01*
X137410740Y-38642880D01*
G75*
G02*
X137610740Y-38442880I200000J0D01*
G01*
X138010740Y-38442880D01*
G75*
G02*
X138210740Y-38642880I0J-200000D01*
G01*
G37*
G36*
G01*
X139860740Y-38642880D02*
X139860740Y-39192880D01*
G75*
G02*
X139660740Y-39392880I-200000J0D01*
G01*
X139260740Y-39392880D01*
G75*
G02*
X139060740Y-39192880I0J200000D01*
G01*
X139060740Y-38642880D01*
G75*
G02*
X139260740Y-38442880I200000J0D01*
G01*
X139660740Y-38442880D01*
G75*
G02*
X139860740Y-38642880I0J-200000D01*
G01*
G37*
%TD*%
%TO.C,R5*%
G36*
G01*
X138228520Y-40547880D02*
X138228520Y-41097880D01*
G75*
G02*
X138028520Y-41297880I-200000J0D01*
G01*
X137628520Y-41297880D01*
G75*
G02*
X137428520Y-41097880I0J200000D01*
G01*
X137428520Y-40547880D01*
G75*
G02*
X137628520Y-40347880I200000J0D01*
G01*
X138028520Y-40347880D01*
G75*
G02*
X138228520Y-40547880I0J-200000D01*
G01*
G37*
G36*
G01*
X139878520Y-40547880D02*
X139878520Y-41097880D01*
G75*
G02*
X139678520Y-41297880I-200000J0D01*
G01*
X139278520Y-41297880D01*
G75*
G02*
X139078520Y-41097880I0J200000D01*
G01*
X139078520Y-40547880D01*
G75*
G02*
X139278520Y-40347880I200000J0D01*
G01*
X139678520Y-40347880D01*
G75*
G02*
X139878520Y-40547880I0J-200000D01*
G01*
G37*
%TD*%
%TO.C,R4*%
G36*
G01*
X48422139Y-117598140D02*
X49322141Y-117598140D01*
G75*
G02*
X49572140Y-117848139I0J-249999D01*
G01*
X49572140Y-118373141D01*
G75*
G02*
X49322141Y-118623140I-249999J0D01*
G01*
X48422139Y-118623140D01*
G75*
G02*
X48172140Y-118373141I0J249999D01*
G01*
X48172140Y-117848139D01*
G75*
G02*
X48422139Y-117598140I249999J0D01*
G01*
G37*
G36*
G01*
X48422139Y-115773140D02*
X49322141Y-115773140D01*
G75*
G02*
X49572140Y-116023139I0J-249999D01*
G01*
X49572140Y-116548141D01*
G75*
G02*
X49322141Y-116798140I-249999J0D01*
G01*
X48422139Y-116798140D01*
G75*
G02*
X48172140Y-116548141I0J249999D01*
G01*
X48172140Y-116023139D01*
G75*
G02*
X48422139Y-115773140I249999J0D01*
G01*
G37*
%TD*%
%TO.C,R2*%
G36*
G01*
X45721860Y-117549480D02*
X46271860Y-117549480D01*
G75*
G02*
X46471860Y-117749480I0J-200000D01*
G01*
X46471860Y-118149480D01*
G75*
G02*
X46271860Y-118349480I-200000J0D01*
G01*
X45721860Y-118349480D01*
G75*
G02*
X45521860Y-118149480I0J200000D01*
G01*
X45521860Y-117749480D01*
G75*
G02*
X45721860Y-117549480I200000J0D01*
G01*
G37*
G36*
G01*
X45721860Y-115899480D02*
X46271860Y-115899480D01*
G75*
G02*
X46471860Y-116099480I0J-200000D01*
G01*
X46471860Y-116499480D01*
G75*
G02*
X46271860Y-116699480I-200000J0D01*
G01*
X45721860Y-116699480D01*
G75*
G02*
X45521860Y-116499480I0J200000D01*
G01*
X45521860Y-116099480D01*
G75*
G02*
X45721860Y-115899480I200000J0D01*
G01*
G37*
%TD*%
%TO.C,R1*%
G36*
G01*
X42850480Y-116709640D02*
X42300480Y-116709640D01*
G75*
G02*
X42100480Y-116509640I0J200000D01*
G01*
X42100480Y-116109640D01*
G75*
G02*
X42300480Y-115909640I200000J0D01*
G01*
X42850480Y-115909640D01*
G75*
G02*
X43050480Y-116109640I0J-200000D01*
G01*
X43050480Y-116509640D01*
G75*
G02*
X42850480Y-116709640I-200000J0D01*
G01*
G37*
G36*
G01*
X42850480Y-118359640D02*
X42300480Y-118359640D01*
G75*
G02*
X42100480Y-118159640I0J200000D01*
G01*
X42100480Y-117759640D01*
G75*
G02*
X42300480Y-117559640I200000J0D01*
G01*
X42850480Y-117559640D01*
G75*
G02*
X43050480Y-117759640I0J-200000D01*
G01*
X43050480Y-118159640D01*
G75*
G02*
X42850480Y-118359640I-200000J0D01*
G01*
G37*
%TD*%
D29*
%TO.C,Q3*%
X115028980Y-42738800D03*
X115978980Y-44738800D03*
X114078980Y-44738800D03*
%TD*%
%TO.C,Q2*%
X142049500Y-65516000D03*
X141099500Y-63516000D03*
X142999500Y-63516000D03*
%TD*%
D30*
%TO.C,Q1*%
X35850320Y-117002560D03*
X37850320Y-116052560D03*
X37850320Y-117952560D03*
%TD*%
D13*
%TO.C,J23*%
X46482000Y-37668200D03*
X46482000Y-35128200D03*
X49022000Y-37668200D03*
X49022000Y-35128200D03*
X51562000Y-37668200D03*
X51562000Y-35128200D03*
X54102000Y-37668200D03*
D14*
X54102000Y-35128200D03*
%TD*%
D13*
%TO.C,J22*%
X54546500Y-128993900D03*
X57086500Y-128993900D03*
X54546500Y-131533900D03*
X57086500Y-131533900D03*
X54546500Y-134073900D03*
D14*
X57086500Y-134073900D03*
%TD*%
D13*
%TO.C,J21*%
X36322000Y-67119500D03*
X33782000Y-67119500D03*
X36322000Y-64579500D03*
X33782000Y-64579500D03*
X36322000Y-62039500D03*
X33782000Y-62039500D03*
X36322000Y-59499500D03*
X33782000Y-59499500D03*
X36322000Y-56959500D03*
X33782000Y-56959500D03*
X36322000Y-54419500D03*
X33782000Y-54419500D03*
X36322000Y-51879500D03*
X33782000Y-51879500D03*
X36322000Y-49339500D03*
X33782000Y-49339500D03*
X36322000Y-46799500D03*
D14*
X33782000Y-46799500D03*
%TD*%
D13*
%TO.C,J20*%
X132080000Y-119340000D03*
X129540000Y-119340000D03*
X132080000Y-116800000D03*
X129540000Y-116800000D03*
X132080000Y-114260000D03*
X129540000Y-114260000D03*
X132080000Y-111720000D03*
X129540000Y-111720000D03*
X132080000Y-109180000D03*
X129540000Y-109180000D03*
X132080000Y-106640000D03*
X129540000Y-106640000D03*
X132080000Y-104100000D03*
X129540000Y-104100000D03*
X132080000Y-101560000D03*
X129540000Y-101560000D03*
X132080000Y-99020000D03*
X129540000Y-99020000D03*
X132080000Y-96480000D03*
X129540000Y-96480000D03*
X132080000Y-93940000D03*
X129540000Y-93940000D03*
X132080000Y-91400000D03*
X129540000Y-91400000D03*
X132080000Y-88860000D03*
X129540000Y-88860000D03*
X132080000Y-86320000D03*
X129540000Y-86320000D03*
X132080000Y-83780000D03*
X129540000Y-83780000D03*
X132080000Y-81240000D03*
X129540000Y-81240000D03*
X132080000Y-78700000D03*
X129540000Y-78700000D03*
X132080000Y-76160000D03*
X129540000Y-76160000D03*
X132080000Y-73620000D03*
X129540000Y-73620000D03*
X132080000Y-71080000D03*
X129540000Y-71080000D03*
X132080000Y-68540000D03*
X129540000Y-68540000D03*
X132080000Y-66000000D03*
D14*
X129540000Y-66000000D03*
%TD*%
D31*
%TO.C,J18*%
X125857000Y-133477000D03*
X128397000Y-133477000D03*
X130937000Y-133477000D03*
X133477000Y-133477000D03*
X136017000Y-133477000D03*
X138557000Y-133477000D03*
X141097000Y-133477000D03*
X143637000Y-133477000D03*
X146177000Y-133477000D03*
X148717000Y-133477000D03*
X125857000Y-130937000D03*
X128397000Y-130937000D03*
X130937000Y-130937000D03*
X133477000Y-130937000D03*
X136017000Y-130937000D03*
X138557000Y-130937000D03*
X141097000Y-130937000D03*
X143637000Y-130937000D03*
X146177000Y-130937000D03*
G36*
G01*
X148117000Y-130087000D02*
X149317000Y-130087000D01*
G75*
G02*
X149567000Y-130337000I0J-250000D01*
G01*
X149567000Y-131537000D01*
G75*
G02*
X149317000Y-131787000I-250000J0D01*
G01*
X148117000Y-131787000D01*
G75*
G02*
X147867000Y-131537000I0J250000D01*
G01*
X147867000Y-130337000D01*
G75*
G02*
X148117000Y-130087000I250000J0D01*
G01*
G37*
%TD*%
D13*
%TO.C,J17*%
X142349220Y-94681040D03*
X139809220Y-94681040D03*
X142349220Y-92141040D03*
D14*
X139809220Y-92141040D03*
%TD*%
D13*
%TO.C,J16*%
X115448080Y-55628540D03*
D14*
X112908080Y-55628540D03*
%TD*%
D13*
%TO.C,J15*%
X156146500Y-31813500D03*
X158686500Y-31813500D03*
X156146500Y-34353500D03*
X158686500Y-34353500D03*
X156146500Y-36893500D03*
D14*
X158686500Y-36893500D03*
%TD*%
D13*
%TO.C,J14*%
X137218420Y-113350040D03*
X139758420Y-113350040D03*
X137218420Y-115890040D03*
D14*
X139758420Y-115890040D03*
%TD*%
D13*
%TO.C,J13*%
X147320000Y-31750000D03*
X149860000Y-31750000D03*
X147320000Y-34290000D03*
X149860000Y-34290000D03*
X147320000Y-36830000D03*
D14*
X149860000Y-36830000D03*
%TD*%
D13*
%TO.C,J12*%
X116263420Y-125981460D03*
X116263420Y-123441460D03*
X113723420Y-125981460D03*
X113723420Y-123441460D03*
X111183420Y-125981460D03*
X111183420Y-123441460D03*
X108643420Y-125981460D03*
X108643420Y-123441460D03*
X106103420Y-125981460D03*
X106103420Y-123441460D03*
X103563420Y-125981460D03*
X103563420Y-123441460D03*
X101023420Y-125981460D03*
X101023420Y-123441460D03*
X98483420Y-125981460D03*
X98483420Y-123441460D03*
X95943420Y-125981460D03*
X95943420Y-123441460D03*
X93403420Y-125981460D03*
X93403420Y-123441460D03*
X90863420Y-125981460D03*
X90863420Y-123441460D03*
X88323420Y-125981460D03*
X88323420Y-123441460D03*
X85783420Y-125981460D03*
X85783420Y-123441460D03*
X83243420Y-125981460D03*
X83243420Y-123441460D03*
X80703420Y-125981460D03*
X80703420Y-123441460D03*
X78163420Y-125981460D03*
D14*
X78163420Y-123441460D03*
%TD*%
D32*
%TO.C,J11*%
X161417000Y-87208000D03*
X161417000Y-91608000D03*
D33*
X164267000Y-84958000D03*
X158817000Y-84958000D03*
X164267000Y-93858000D03*
X158817000Y-93858000D03*
D34*
X158717000Y-87808000D03*
X158717000Y-88608000D03*
X158717000Y-89408000D03*
X158717000Y-90208000D03*
X158717000Y-91008000D03*
%TD*%
D35*
%TO.C,J10*%
X159875500Y-103403000D03*
X159875500Y-128403000D03*
D13*
X162415500Y-120058000D03*
X162415500Y-117288000D03*
X162415500Y-114518000D03*
X162415500Y-111748000D03*
X159575500Y-121443000D03*
X159575500Y-118673000D03*
X159575500Y-115903000D03*
X159575500Y-113133000D03*
D14*
X159575500Y-110363000D03*
%TD*%
D13*
%TO.C,J9*%
X141277340Y-74295000D03*
X143817340Y-74295000D03*
X141277340Y-76835000D03*
X143817340Y-76835000D03*
X141277340Y-79375000D03*
X143817340Y-79375000D03*
X141277340Y-81915000D03*
D14*
X143817340Y-81915000D03*
%TD*%
D13*
%TO.C,J8*%
X45656500Y-97876360D03*
X43116500Y-97876360D03*
X45656500Y-95336360D03*
X43116500Y-95336360D03*
X45656500Y-92796360D03*
X43116500Y-92796360D03*
X45656500Y-90256360D03*
D14*
X43116500Y-90256360D03*
%TD*%
D36*
%TO.C,J7*%
X36301680Y-76630520D03*
X36301680Y-81630520D03*
%TD*%
%TO.C,J6*%
X136114800Y-34112200D03*
X131114800Y-34112200D03*
%TD*%
D13*
%TO.C,J5*%
X45166280Y-106677460D03*
X45166280Y-109217460D03*
X42626280Y-106677460D03*
D14*
X42626280Y-109217460D03*
%TD*%
D13*
%TO.C,J4*%
X137629900Y-51503580D03*
X140169900Y-51503580D03*
X137629900Y-54043580D03*
D14*
X140169900Y-54043580D03*
%TD*%
D13*
%TO.C,J3*%
X53771800Y-76695300D03*
X56311800Y-76695300D03*
X53771800Y-79235300D03*
X56311800Y-79235300D03*
X53771800Y-81775300D03*
D14*
X56311800Y-81775300D03*
%TD*%
D32*
%TO.C,J2*%
X161290000Y-66380000D03*
X161290000Y-70780000D03*
D33*
X164140000Y-64130000D03*
X158690000Y-64130000D03*
X164140000Y-73030000D03*
X158690000Y-73030000D03*
D34*
X158590000Y-66980000D03*
X158590000Y-67780000D03*
X158590000Y-68580000D03*
X158590000Y-69380000D03*
X158590000Y-70180000D03*
%TD*%
D13*
%TO.C,J1*%
X129542540Y-63460000D03*
D14*
X132082540Y-63460000D03*
%TD*%
%TO.C,F1*%
G36*
G01*
X161525000Y-59430499D02*
X161525000Y-60330501D01*
G75*
G02*
X161275001Y-60580500I-249999J0D01*
G01*
X160749999Y-60580500D01*
G75*
G02*
X160500000Y-60330501I0J249999D01*
G01*
X160500000Y-59430499D01*
G75*
G02*
X160749999Y-59180500I249999J0D01*
G01*
X161275001Y-59180500D01*
G75*
G02*
X161525000Y-59430499I0J-249999D01*
G01*
G37*
G36*
G01*
X163350000Y-59430499D02*
X163350000Y-60330501D01*
G75*
G02*
X163100001Y-60580500I-249999J0D01*
G01*
X162574999Y-60580500D01*
G75*
G02*
X162325000Y-60330501I0J249999D01*
G01*
X162325000Y-59430499D01*
G75*
G02*
X162574999Y-59180500I249999J0D01*
G01*
X163100001Y-59180500D01*
G75*
G02*
X163350000Y-59430499I0J-249999D01*
G01*
G37*
%TD*%
D17*
%TO.C,D2*%
X35018980Y-111363760D03*
X35018980Y-108823760D03*
D37*
X35018980Y-106283760D03*
%TD*%
%TO.C,C31*%
G36*
G01*
X82275800Y-86287800D02*
X82275800Y-86787800D01*
G75*
G02*
X82050800Y-87012800I-225000J0D01*
G01*
X81600800Y-87012800D01*
G75*
G02*
X81375800Y-86787800I0J225000D01*
G01*
X81375800Y-86287800D01*
G75*
G02*
X81600800Y-86062800I225000J0D01*
G01*
X82050800Y-86062800D01*
G75*
G02*
X82275800Y-86287800I0J-225000D01*
G01*
G37*
G36*
G01*
X83825800Y-86287800D02*
X83825800Y-86787800D01*
G75*
G02*
X83600800Y-87012800I-225000J0D01*
G01*
X83150800Y-87012800D01*
G75*
G02*
X82925800Y-86787800I0J225000D01*
G01*
X82925800Y-86287800D01*
G75*
G02*
X83150800Y-86062800I225000J0D01*
G01*
X83600800Y-86062800D01*
G75*
G02*
X83825800Y-86287800I0J-225000D01*
G01*
G37*
%TD*%
%TO.C,C30*%
G36*
G01*
X85162571Y-78004983D02*
X84809017Y-77651429D01*
G75*
G02*
X84809017Y-77333231I159099J159099D01*
G01*
X85127215Y-77015033D01*
G75*
G02*
X85445413Y-77015033I159099J-159099D01*
G01*
X85798967Y-77368587D01*
G75*
G02*
X85798967Y-77686785I-159099J-159099D01*
G01*
X85480769Y-78004983D01*
G75*
G02*
X85162571Y-78004983I-159099J159099D01*
G01*
G37*
G36*
G01*
X86258587Y-76908967D02*
X85905033Y-76555413D01*
G75*
G02*
X85905033Y-76237215I159099J159099D01*
G01*
X86223231Y-75919017D01*
G75*
G02*
X86541429Y-75919017I159099J-159099D01*
G01*
X86894983Y-76272571D01*
G75*
G02*
X86894983Y-76590769I-159099J-159099D01*
G01*
X86576785Y-76908967D01*
G75*
G02*
X86258587Y-76908967I-159099J159099D01*
G01*
G37*
%TD*%
%TO.C,C29*%
G36*
G01*
X82114571Y-81052983D02*
X81761017Y-80699429D01*
G75*
G02*
X81761017Y-80381231I159099J159099D01*
G01*
X82079215Y-80063033D01*
G75*
G02*
X82397413Y-80063033I159099J-159099D01*
G01*
X82750967Y-80416587D01*
G75*
G02*
X82750967Y-80734785I-159099J-159099D01*
G01*
X82432769Y-81052983D01*
G75*
G02*
X82114571Y-81052983I-159099J159099D01*
G01*
G37*
G36*
G01*
X83210587Y-79956967D02*
X82857033Y-79603413D01*
G75*
G02*
X82857033Y-79285215I159099J159099D01*
G01*
X83175231Y-78967017D01*
G75*
G02*
X83493429Y-78967017I159099J-159099D01*
G01*
X83846983Y-79320571D01*
G75*
G02*
X83846983Y-79638769I-159099J-159099D01*
G01*
X83528785Y-79956967D01*
G75*
G02*
X83210587Y-79956967I-159099J159099D01*
G01*
G37*
%TD*%
%TO.C,C28*%
G36*
G01*
X101340800Y-80641000D02*
X101340800Y-80141000D01*
G75*
G02*
X101565800Y-79916000I225000J0D01*
G01*
X102015800Y-79916000D01*
G75*
G02*
X102240800Y-80141000I0J-225000D01*
G01*
X102240800Y-80641000D01*
G75*
G02*
X102015800Y-80866000I-225000J0D01*
G01*
X101565800Y-80866000D01*
G75*
G02*
X101340800Y-80641000I0J225000D01*
G01*
G37*
G36*
G01*
X99790800Y-80641000D02*
X99790800Y-80141000D01*
G75*
G02*
X100015800Y-79916000I225000J0D01*
G01*
X100465800Y-79916000D01*
G75*
G02*
X100690800Y-80141000I0J-225000D01*
G01*
X100690800Y-80641000D01*
G75*
G02*
X100465800Y-80866000I-225000J0D01*
G01*
X100015800Y-80866000D01*
G75*
G02*
X99790800Y-80641000I0J225000D01*
G01*
G37*
%TD*%
%TO.C,C27*%
G36*
G01*
X83369700Y-92109100D02*
X83369700Y-91609100D01*
G75*
G02*
X83594700Y-91384100I225000J0D01*
G01*
X84044700Y-91384100D01*
G75*
G02*
X84269700Y-91609100I0J-225000D01*
G01*
X84269700Y-92109100D01*
G75*
G02*
X84044700Y-92334100I-225000J0D01*
G01*
X83594700Y-92334100D01*
G75*
G02*
X83369700Y-92109100I0J225000D01*
G01*
G37*
G36*
G01*
X84919700Y-92109100D02*
X84919700Y-91609100D01*
G75*
G02*
X85144700Y-91384100I225000J0D01*
G01*
X85594700Y-91384100D01*
G75*
G02*
X85819700Y-91609100I0J-225000D01*
G01*
X85819700Y-92109100D01*
G75*
G02*
X85594700Y-92334100I-225000J0D01*
G01*
X85144700Y-92334100D01*
G75*
G02*
X84919700Y-92109100I0J225000D01*
G01*
G37*
%TD*%
%TO.C,C26*%
G36*
G01*
X92893000Y-85094000D02*
X92893000Y-85594000D01*
G75*
G02*
X92668000Y-85819000I-225000J0D01*
G01*
X92218000Y-85819000D01*
G75*
G02*
X91993000Y-85594000I0J225000D01*
G01*
X91993000Y-85094000D01*
G75*
G02*
X92218000Y-84869000I225000J0D01*
G01*
X92668000Y-84869000D01*
G75*
G02*
X92893000Y-85094000I0J-225000D01*
G01*
G37*
G36*
G01*
X94443000Y-85094000D02*
X94443000Y-85594000D01*
G75*
G02*
X94218000Y-85819000I-225000J0D01*
G01*
X93768000Y-85819000D01*
G75*
G02*
X93543000Y-85594000I0J225000D01*
G01*
X93543000Y-85094000D01*
G75*
G02*
X93768000Y-84869000I225000J0D01*
G01*
X94218000Y-84869000D01*
G75*
G02*
X94443000Y-85094000I0J-225000D01*
G01*
G37*
%TD*%
%TO.C,C25*%
G36*
G01*
X87459700Y-98751200D02*
X87459700Y-98251200D01*
G75*
G02*
X87684700Y-98026200I225000J0D01*
G01*
X88134700Y-98026200D01*
G75*
G02*
X88359700Y-98251200I0J-225000D01*
G01*
X88359700Y-98751200D01*
G75*
G02*
X88134700Y-98976200I-225000J0D01*
G01*
X87684700Y-98976200D01*
G75*
G02*
X87459700Y-98751200I0J225000D01*
G01*
G37*
G36*
G01*
X85909700Y-98751200D02*
X85909700Y-98251200D01*
G75*
G02*
X86134700Y-98026200I225000J0D01*
G01*
X86584700Y-98026200D01*
G75*
G02*
X86809700Y-98251200I0J-225000D01*
G01*
X86809700Y-98751200D01*
G75*
G02*
X86584700Y-98976200I-225000J0D01*
G01*
X86134700Y-98976200D01*
G75*
G02*
X85909700Y-98751200I0J225000D01*
G01*
G37*
%TD*%
%TO.C,C24*%
G36*
G01*
X104094400Y-80191800D02*
X104094400Y-80691800D01*
G75*
G02*
X103869400Y-80916800I-225000J0D01*
G01*
X103419400Y-80916800D01*
G75*
G02*
X103194400Y-80691800I0J225000D01*
G01*
X103194400Y-80191800D01*
G75*
G02*
X103419400Y-79966800I225000J0D01*
G01*
X103869400Y-79966800D01*
G75*
G02*
X104094400Y-80191800I0J-225000D01*
G01*
G37*
G36*
G01*
X105644400Y-80191800D02*
X105644400Y-80691800D01*
G75*
G02*
X105419400Y-80916800I-225000J0D01*
G01*
X104969400Y-80916800D01*
G75*
G02*
X104744400Y-80691800I0J225000D01*
G01*
X104744400Y-80191800D01*
G75*
G02*
X104969400Y-79966800I225000J0D01*
G01*
X105419400Y-79966800D01*
G75*
G02*
X105644400Y-80191800I0J-225000D01*
G01*
G37*
%TD*%
%TO.C,C23*%
G36*
G01*
X115143400Y-96168400D02*
X115143400Y-96668400D01*
G75*
G02*
X114918400Y-96893400I-225000J0D01*
G01*
X114468400Y-96893400D01*
G75*
G02*
X114243400Y-96668400I0J225000D01*
G01*
X114243400Y-96168400D01*
G75*
G02*
X114468400Y-95943400I225000J0D01*
G01*
X114918400Y-95943400D01*
G75*
G02*
X115143400Y-96168400I0J-225000D01*
G01*
G37*
G36*
G01*
X116693400Y-96168400D02*
X116693400Y-96668400D01*
G75*
G02*
X116468400Y-96893400I-225000J0D01*
G01*
X116018400Y-96893400D01*
G75*
G02*
X115793400Y-96668400I0J225000D01*
G01*
X115793400Y-96168400D01*
G75*
G02*
X116018400Y-95943400I225000J0D01*
G01*
X116468400Y-95943400D01*
G75*
G02*
X116693400Y-96168400I0J-225000D01*
G01*
G37*
%TD*%
%TO.C,C22*%
G36*
G01*
X102839400Y-109978000D02*
X102839400Y-109478000D01*
G75*
G02*
X103064400Y-109253000I225000J0D01*
G01*
X103514400Y-109253000D01*
G75*
G02*
X103739400Y-109478000I0J-225000D01*
G01*
X103739400Y-109978000D01*
G75*
G02*
X103514400Y-110203000I-225000J0D01*
G01*
X103064400Y-110203000D01*
G75*
G02*
X102839400Y-109978000I0J225000D01*
G01*
G37*
G36*
G01*
X101289400Y-109978000D02*
X101289400Y-109478000D01*
G75*
G02*
X101514400Y-109253000I225000J0D01*
G01*
X101964400Y-109253000D01*
G75*
G02*
X102189400Y-109478000I0J-225000D01*
G01*
X102189400Y-109978000D01*
G75*
G02*
X101964400Y-110203000I-225000J0D01*
G01*
X101514400Y-110203000D01*
G75*
G02*
X101289400Y-109978000I0J225000D01*
G01*
G37*
%TD*%
%TO.C,C21*%
G36*
G01*
X94492000Y-79598400D02*
X94992000Y-79598400D01*
G75*
G02*
X95217000Y-79823400I0J-225000D01*
G01*
X95217000Y-80273400D01*
G75*
G02*
X94992000Y-80498400I-225000J0D01*
G01*
X94492000Y-80498400D01*
G75*
G02*
X94267000Y-80273400I0J225000D01*
G01*
X94267000Y-79823400D01*
G75*
G02*
X94492000Y-79598400I225000J0D01*
G01*
G37*
G36*
G01*
X94492000Y-78048400D02*
X94992000Y-78048400D01*
G75*
G02*
X95217000Y-78273400I0J-225000D01*
G01*
X95217000Y-78723400D01*
G75*
G02*
X94992000Y-78948400I-225000J0D01*
G01*
X94492000Y-78948400D01*
G75*
G02*
X94267000Y-78723400I0J225000D01*
G01*
X94267000Y-78273400D01*
G75*
G02*
X94492000Y-78048400I225000J0D01*
G01*
G37*
%TD*%
%TO.C,C20*%
G36*
G01*
X96168400Y-79547600D02*
X96668400Y-79547600D01*
G75*
G02*
X96893400Y-79772600I0J-225000D01*
G01*
X96893400Y-80222600D01*
G75*
G02*
X96668400Y-80447600I-225000J0D01*
G01*
X96168400Y-80447600D01*
G75*
G02*
X95943400Y-80222600I0J225000D01*
G01*
X95943400Y-79772600D01*
G75*
G02*
X96168400Y-79547600I225000J0D01*
G01*
G37*
G36*
G01*
X96168400Y-77997600D02*
X96668400Y-77997600D01*
G75*
G02*
X96893400Y-78222600I0J-225000D01*
G01*
X96893400Y-78672600D01*
G75*
G02*
X96668400Y-78897600I-225000J0D01*
G01*
X96168400Y-78897600D01*
G75*
G02*
X95943400Y-78672600I0J225000D01*
G01*
X95943400Y-78222600D01*
G75*
G02*
X96168400Y-77997600I225000J0D01*
G01*
G37*
%TD*%
%TO.C,C18*%
G36*
G01*
X140415200Y-119839620D02*
X140915200Y-119839620D01*
G75*
G02*
X141140200Y-120064620I0J-225000D01*
G01*
X141140200Y-120514620D01*
G75*
G02*
X140915200Y-120739620I-225000J0D01*
G01*
X140415200Y-120739620D01*
G75*
G02*
X140190200Y-120514620I0J225000D01*
G01*
X140190200Y-120064620D01*
G75*
G02*
X140415200Y-119839620I225000J0D01*
G01*
G37*
G36*
G01*
X140415200Y-118289620D02*
X140915200Y-118289620D01*
G75*
G02*
X141140200Y-118514620I0J-225000D01*
G01*
X141140200Y-118964620D01*
G75*
G02*
X140915200Y-119189620I-225000J0D01*
G01*
X140415200Y-119189620D01*
G75*
G02*
X140190200Y-118964620I0J225000D01*
G01*
X140190200Y-118514620D01*
G75*
G02*
X140415200Y-118289620I225000J0D01*
G01*
G37*
%TD*%
%TO.C,C17*%
G36*
G01*
X152493860Y-112180180D02*
X152493860Y-111680180D01*
G75*
G02*
X152718860Y-111455180I225000J0D01*
G01*
X153168860Y-111455180D01*
G75*
G02*
X153393860Y-111680180I0J-225000D01*
G01*
X153393860Y-112180180D01*
G75*
G02*
X153168860Y-112405180I-225000J0D01*
G01*
X152718860Y-112405180D01*
G75*
G02*
X152493860Y-112180180I0J225000D01*
G01*
G37*
G36*
G01*
X150943860Y-112180180D02*
X150943860Y-111680180D01*
G75*
G02*
X151168860Y-111455180I225000J0D01*
G01*
X151618860Y-111455180D01*
G75*
G02*
X151843860Y-111680180I0J-225000D01*
G01*
X151843860Y-112180180D01*
G75*
G02*
X151618860Y-112405180I-225000J0D01*
G01*
X151168860Y-112405180D01*
G75*
G02*
X150943860Y-112180180I0J225000D01*
G01*
G37*
%TD*%
%TO.C,C16*%
G36*
G01*
X151324500Y-122562500D02*
X151824500Y-122562500D01*
G75*
G02*
X152049500Y-122787500I0J-225000D01*
G01*
X152049500Y-123237500D01*
G75*
G02*
X151824500Y-123462500I-225000J0D01*
G01*
X151324500Y-123462500D01*
G75*
G02*
X151099500Y-123237500I0J225000D01*
G01*
X151099500Y-122787500D01*
G75*
G02*
X151324500Y-122562500I225000J0D01*
G01*
G37*
G36*
G01*
X151324500Y-121012500D02*
X151824500Y-121012500D01*
G75*
G02*
X152049500Y-121237500I0J-225000D01*
G01*
X152049500Y-121687500D01*
G75*
G02*
X151824500Y-121912500I-225000J0D01*
G01*
X151324500Y-121912500D01*
G75*
G02*
X151099500Y-121687500I0J225000D01*
G01*
X151099500Y-121237500D01*
G75*
G02*
X151324500Y-121012500I225000J0D01*
G01*
G37*
%TD*%
%TO.C,C15*%
G36*
G01*
X151324500Y-115577500D02*
X151824500Y-115577500D01*
G75*
G02*
X152049500Y-115802500I0J-225000D01*
G01*
X152049500Y-116252500D01*
G75*
G02*
X151824500Y-116477500I-225000J0D01*
G01*
X151324500Y-116477500D01*
G75*
G02*
X151099500Y-116252500I0J225000D01*
G01*
X151099500Y-115802500D01*
G75*
G02*
X151324500Y-115577500I225000J0D01*
G01*
G37*
G36*
G01*
X151324500Y-114027500D02*
X151824500Y-114027500D01*
G75*
G02*
X152049500Y-114252500I0J-225000D01*
G01*
X152049500Y-114702500D01*
G75*
G02*
X151824500Y-114927500I-225000J0D01*
G01*
X151324500Y-114927500D01*
G75*
G02*
X151099500Y-114702500I0J225000D01*
G01*
X151099500Y-114252500D01*
G75*
G02*
X151324500Y-114027500I225000J0D01*
G01*
G37*
%TD*%
%TO.C,C14*%
G36*
G01*
X151324500Y-119006500D02*
X151824500Y-119006500D01*
G75*
G02*
X152049500Y-119231500I0J-225000D01*
G01*
X152049500Y-119681500D01*
G75*
G02*
X151824500Y-119906500I-225000J0D01*
G01*
X151324500Y-119906500D01*
G75*
G02*
X151099500Y-119681500I0J225000D01*
G01*
X151099500Y-119231500D01*
G75*
G02*
X151324500Y-119006500I225000J0D01*
G01*
G37*
G36*
G01*
X151324500Y-117456500D02*
X151824500Y-117456500D01*
G75*
G02*
X152049500Y-117681500I0J-225000D01*
G01*
X152049500Y-118131500D01*
G75*
G02*
X151824500Y-118356500I-225000J0D01*
G01*
X151324500Y-118356500D01*
G75*
G02*
X151099500Y-118131500I0J225000D01*
G01*
X151099500Y-117681500D01*
G75*
G02*
X151324500Y-117456500I225000J0D01*
G01*
G37*
%TD*%
%TO.C,C13*%
G36*
G01*
X144025200Y-48115200D02*
X144025200Y-49065200D01*
G75*
G02*
X143775200Y-49315200I-250000J0D01*
G01*
X143275200Y-49315200D01*
G75*
G02*
X143025200Y-49065200I0J250000D01*
G01*
X143025200Y-48115200D01*
G75*
G02*
X143275200Y-47865200I250000J0D01*
G01*
X143775200Y-47865200D01*
G75*
G02*
X144025200Y-48115200I0J-250000D01*
G01*
G37*
G36*
G01*
X145925200Y-48115200D02*
X145925200Y-49065200D01*
G75*
G02*
X145675200Y-49315200I-250000J0D01*
G01*
X145175200Y-49315200D01*
G75*
G02*
X144925200Y-49065200I0J250000D01*
G01*
X144925200Y-48115200D01*
G75*
G02*
X145175200Y-47865200I250000J0D01*
G01*
X145675200Y-47865200D01*
G75*
G02*
X145925200Y-48115200I0J-250000D01*
G01*
G37*
%TD*%
%TO.C,C12*%
G36*
G01*
X150975100Y-46130300D02*
X150975100Y-45030300D01*
G75*
G02*
X151225100Y-44780300I250000J0D01*
G01*
X154225100Y-44780300D01*
G75*
G02*
X154475100Y-45030300I0J-250000D01*
G01*
X154475100Y-46130300D01*
G75*
G02*
X154225100Y-46380300I-250000J0D01*
G01*
X151225100Y-46380300D01*
G75*
G02*
X150975100Y-46130300I0J250000D01*
G01*
G37*
G36*
G01*
X145575100Y-46130300D02*
X145575100Y-45030300D01*
G75*
G02*
X145825100Y-44780300I250000J0D01*
G01*
X148825100Y-44780300D01*
G75*
G02*
X149075100Y-45030300I0J-250000D01*
G01*
X149075100Y-46130300D01*
G75*
G02*
X148825100Y-46380300I-250000J0D01*
G01*
X145825100Y-46380300D01*
G75*
G02*
X145575100Y-46130300I0J250000D01*
G01*
G37*
%TD*%
%TO.C,C11*%
G36*
G01*
X143838740Y-67721600D02*
X143338740Y-67721600D01*
G75*
G02*
X143113740Y-67496600I0J225000D01*
G01*
X143113740Y-67046600D01*
G75*
G02*
X143338740Y-66821600I225000J0D01*
G01*
X143838740Y-66821600D01*
G75*
G02*
X144063740Y-67046600I0J-225000D01*
G01*
X144063740Y-67496600D01*
G75*
G02*
X143838740Y-67721600I-225000J0D01*
G01*
G37*
G36*
G01*
X143838740Y-69271600D02*
X143338740Y-69271600D01*
G75*
G02*
X143113740Y-69046600I0J225000D01*
G01*
X143113740Y-68596600D01*
G75*
G02*
X143338740Y-68371600I225000J0D01*
G01*
X143838740Y-68371600D01*
G75*
G02*
X144063740Y-68596600I0J-225000D01*
G01*
X144063740Y-69046600D01*
G75*
G02*
X143838740Y-69271600I-225000J0D01*
G01*
G37*
%TD*%
%TO.C,C10*%
G36*
G01*
X38748780Y-111813460D02*
X38248780Y-111813460D01*
G75*
G02*
X38023780Y-111588460I0J225000D01*
G01*
X38023780Y-111138460D01*
G75*
G02*
X38248780Y-110913460I225000J0D01*
G01*
X38748780Y-110913460D01*
G75*
G02*
X38973780Y-111138460I0J-225000D01*
G01*
X38973780Y-111588460D01*
G75*
G02*
X38748780Y-111813460I-225000J0D01*
G01*
G37*
G36*
G01*
X38748780Y-113363460D02*
X38248780Y-113363460D01*
G75*
G02*
X38023780Y-113138460I0J225000D01*
G01*
X38023780Y-112688460D01*
G75*
G02*
X38248780Y-112463460I225000J0D01*
G01*
X38748780Y-112463460D01*
G75*
G02*
X38973780Y-112688460I0J-225000D01*
G01*
X38973780Y-113138460D01*
G75*
G02*
X38748780Y-113363460I-225000J0D01*
G01*
G37*
%TD*%
%TO.C,C9*%
G36*
G01*
X154033200Y-55237800D02*
X154983200Y-55237800D01*
G75*
G02*
X155233200Y-55487800I0J-250000D01*
G01*
X155233200Y-55987800D01*
G75*
G02*
X154983200Y-56237800I-250000J0D01*
G01*
X154033200Y-56237800D01*
G75*
G02*
X153783200Y-55987800I0J250000D01*
G01*
X153783200Y-55487800D01*
G75*
G02*
X154033200Y-55237800I250000J0D01*
G01*
G37*
G36*
G01*
X154033200Y-53337800D02*
X154983200Y-53337800D01*
G75*
G02*
X155233200Y-53587800I0J-250000D01*
G01*
X155233200Y-54087800D01*
G75*
G02*
X154983200Y-54337800I-250000J0D01*
G01*
X154033200Y-54337800D01*
G75*
G02*
X153783200Y-54087800I0J250000D01*
G01*
X153783200Y-53587800D01*
G75*
G02*
X154033200Y-53337800I250000J0D01*
G01*
G37*
%TD*%
%TO.C,C8*%
G36*
G01*
X92781000Y-61311600D02*
X92781000Y-60811600D01*
G75*
G02*
X93006000Y-60586600I225000J0D01*
G01*
X93456000Y-60586600D01*
G75*
G02*
X93681000Y-60811600I0J-225000D01*
G01*
X93681000Y-61311600D01*
G75*
G02*
X93456000Y-61536600I-225000J0D01*
G01*
X93006000Y-61536600D01*
G75*
G02*
X92781000Y-61311600I0J225000D01*
G01*
G37*
G36*
G01*
X91231000Y-61311600D02*
X91231000Y-60811600D01*
G75*
G02*
X91456000Y-60586600I225000J0D01*
G01*
X91906000Y-60586600D01*
G75*
G02*
X92131000Y-60811600I0J-225000D01*
G01*
X92131000Y-61311600D01*
G75*
G02*
X91906000Y-61536600I-225000J0D01*
G01*
X91456000Y-61536600D01*
G75*
G02*
X91231000Y-61311600I0J225000D01*
G01*
G37*
%TD*%
%TO.C,C7*%
G36*
G01*
X163510000Y-45000000D02*
X163510000Y-43900000D01*
G75*
G02*
X163760000Y-43650000I250000J0D01*
G01*
X166760000Y-43650000D01*
G75*
G02*
X167010000Y-43900000I0J-250000D01*
G01*
X167010000Y-45000000D01*
G75*
G02*
X166760000Y-45250000I-250000J0D01*
G01*
X163760000Y-45250000D01*
G75*
G02*
X163510000Y-45000000I0J250000D01*
G01*
G37*
G36*
G01*
X158110000Y-45000000D02*
X158110000Y-43900000D01*
G75*
G02*
X158360000Y-43650000I250000J0D01*
G01*
X161360000Y-43650000D01*
G75*
G02*
X161610000Y-43900000I0J-250000D01*
G01*
X161610000Y-45000000D01*
G75*
G02*
X161360000Y-45250000I-250000J0D01*
G01*
X158360000Y-45250000D01*
G75*
G02*
X158110000Y-45000000I0J250000D01*
G01*
G37*
%TD*%
%TO.C,C6*%
G36*
G01*
X44197080Y-83743920D02*
X43697080Y-83743920D01*
G75*
G02*
X43472080Y-83518920I0J225000D01*
G01*
X43472080Y-83068920D01*
G75*
G02*
X43697080Y-82843920I225000J0D01*
G01*
X44197080Y-82843920D01*
G75*
G02*
X44422080Y-83068920I0J-225000D01*
G01*
X44422080Y-83518920D01*
G75*
G02*
X44197080Y-83743920I-225000J0D01*
G01*
G37*
G36*
G01*
X44197080Y-85293920D02*
X43697080Y-85293920D01*
G75*
G02*
X43472080Y-85068920I0J225000D01*
G01*
X43472080Y-84618920D01*
G75*
G02*
X43697080Y-84393920I225000J0D01*
G01*
X44197080Y-84393920D01*
G75*
G02*
X44422080Y-84618920I0J-225000D01*
G01*
X44422080Y-85068920D01*
G75*
G02*
X44197080Y-85293920I-225000J0D01*
G01*
G37*
%TD*%
%TO.C,C5*%
G36*
G01*
X37787700Y-100179060D02*
X37787700Y-100679060D01*
G75*
G02*
X37562700Y-100904060I-225000J0D01*
G01*
X37112700Y-100904060D01*
G75*
G02*
X36887700Y-100679060I0J225000D01*
G01*
X36887700Y-100179060D01*
G75*
G02*
X37112700Y-99954060I225000J0D01*
G01*
X37562700Y-99954060D01*
G75*
G02*
X37787700Y-100179060I0J-225000D01*
G01*
G37*
G36*
G01*
X39337700Y-100179060D02*
X39337700Y-100679060D01*
G75*
G02*
X39112700Y-100904060I-225000J0D01*
G01*
X38662700Y-100904060D01*
G75*
G02*
X38437700Y-100679060I0J225000D01*
G01*
X38437700Y-100179060D01*
G75*
G02*
X38662700Y-99954060I225000J0D01*
G01*
X39112700Y-99954060D01*
G75*
G02*
X39337700Y-100179060I0J-225000D01*
G01*
G37*
%TD*%
%TO.C,C4*%
G36*
G01*
X155260160Y-74433620D02*
X155260160Y-74933620D01*
G75*
G02*
X155035160Y-75158620I-225000J0D01*
G01*
X154585160Y-75158620D01*
G75*
G02*
X154360160Y-74933620I0J225000D01*
G01*
X154360160Y-74433620D01*
G75*
G02*
X154585160Y-74208620I225000J0D01*
G01*
X155035160Y-74208620D01*
G75*
G02*
X155260160Y-74433620I0J-225000D01*
G01*
G37*
G36*
G01*
X156810160Y-74433620D02*
X156810160Y-74933620D01*
G75*
G02*
X156585160Y-75158620I-225000J0D01*
G01*
X156135160Y-75158620D01*
G75*
G02*
X155910160Y-74933620I0J225000D01*
G01*
X155910160Y-74433620D01*
G75*
G02*
X156135160Y-74208620I225000J0D01*
G01*
X156585160Y-74208620D01*
G75*
G02*
X156810160Y-74433620I0J-225000D01*
G01*
G37*
%TD*%
%TO.C,C3*%
G36*
G01*
X152844380Y-74933620D02*
X152844380Y-74433620D01*
G75*
G02*
X153069380Y-74208620I225000J0D01*
G01*
X153519380Y-74208620D01*
G75*
G02*
X153744380Y-74433620I0J-225000D01*
G01*
X153744380Y-74933620D01*
G75*
G02*
X153519380Y-75158620I-225000J0D01*
G01*
X153069380Y-75158620D01*
G75*
G02*
X152844380Y-74933620I0J225000D01*
G01*
G37*
G36*
G01*
X151294380Y-74933620D02*
X151294380Y-74433620D01*
G75*
G02*
X151519380Y-74208620I225000J0D01*
G01*
X151969380Y-74208620D01*
G75*
G02*
X152194380Y-74433620I0J-225000D01*
G01*
X152194380Y-74933620D01*
G75*
G02*
X151969380Y-75158620I-225000J0D01*
G01*
X151519380Y-75158620D01*
G75*
G02*
X151294380Y-74933620I0J225000D01*
G01*
G37*
%TD*%
%TO.C,C1*%
G36*
G01*
X131404240Y-50483580D02*
X131404240Y-49983580D01*
G75*
G02*
X131629240Y-49758580I225000J0D01*
G01*
X132079240Y-49758580D01*
G75*
G02*
X132304240Y-49983580I0J-225000D01*
G01*
X132304240Y-50483580D01*
G75*
G02*
X132079240Y-50708580I-225000J0D01*
G01*
X131629240Y-50708580D01*
G75*
G02*
X131404240Y-50483580I0J225000D01*
G01*
G37*
G36*
G01*
X129854240Y-50483580D02*
X129854240Y-49983580D01*
G75*
G02*
X130079240Y-49758580I225000J0D01*
G01*
X130529240Y-49758580D01*
G75*
G02*
X130754240Y-49983580I0J-225000D01*
G01*
X130754240Y-50483580D01*
G75*
G02*
X130529240Y-50708580I-225000J0D01*
G01*
X130079240Y-50708580D01*
G75*
G02*
X129854240Y-50483580I0J225000D01*
G01*
G37*
%TD*%
M02*
