M48
; DRILL file {KiCad (5.1.10-1-10_14)} date Tuesday, July 27, 2021 at 04:48:31 PM
; FORMAT={-:-/ absolute / inch / decimal}
; #@! TF.CreationDate,2021-07-27T16:48:31+08:00
; #@! TF.GenerationSoftware,Kicad,Pcbnew,(5.1.10-1-10_14)
; #@! TF.FileFunction,Plated,1,2,PTH
FMAT,2
INCH
T1C0.0157
T2C0.0315
T3C0.0335
T4C0.0394
T5C0.0402
T6C0.0433
T7C0.0472
T8C0.0512
T9C0.0630
T10C0.1260
%
G90
G05
T1
X1.344Y-3.619
X1.3852Y-3.7118
X1.3855Y-3.3965
X1.4172Y-3.6518
X1.4305Y-1.7735
X1.4357Y-3.7534
X1.532Y-4.009
X1.552Y-3.349
X1.681Y-4.482
X1.728Y-3.2335
X1.7785Y-3.4575
X1.854Y-4.73
X1.8925Y-3.4585
X1.963Y-2.7755
X2.052Y-3.503
X2.0955Y-3.608
X2.1185Y-3.4475
X2.221Y-3.5965
X2.33Y-5.377
X2.3805Y-3.5005
X2.6918Y-2.0338
X2.7405Y-4.8245
X2.746Y-3.95
X2.751Y-2.957
X2.7724Y-4.2984
X2.7816Y-3.9984
X2.787Y-2.897
X2.8214Y-4.3984
X2.8231Y-3.8984
X2.8594Y-3.6541
X2.868Y-4.348
X2.871Y-3.6086
X2.882Y-2.91
X2.9056Y-4.4984
X2.908Y-2.838
X2.943Y-4.448
X2.9766Y-4.5984
X3.0135Y-5.314
X3.019Y-3.344
X3.0322Y-4.5428
X3.0516Y-3.3984
X3.089Y-3.6165
X3.264Y-2.4035
X3.327Y-3.876
X3.328Y-3.006
X3.3324Y-4.6346
X3.337Y-5.185
X3.362Y-2.404
X3.419Y-5.238
X3.4735Y-2.406
X3.511Y-2.255
X3.5295Y-2.3572
X3.543Y-4.524
X3.5545Y-3.613
X3.5577Y-3.4248
X3.6Y-4.511
X3.661Y-4.592
X3.6625Y-5.2535
X3.664Y-4.509
X3.701Y-3.046
X3.7022Y-2.3569
X3.7025Y-3.423
X3.7085Y-2.2795
X3.7368Y-3.7848
X3.747Y-3.732
X3.7593Y-3.6946
X3.8345Y-2.4035
X3.869Y-3.614
X3.8737Y-2.2498
X3.877Y-4.582
X3.8834Y-4.6539
X3.8845Y-3.9775
X3.8871Y-4.4769
X3.896Y-3.572
X3.9325Y-3.6196
X3.943Y-3.215
X3.963Y-4.4405
X3.966Y-3.839
X3.9686Y-3.6354
X3.9879Y-3.6697
X3.99Y-3.876
X4.013Y-3.488
X4.0175Y-3.7501
X4.024Y-3.331
X4.0324Y-3.7976
X4.035Y-3.676
X4.036Y-2.4374
X4.0368Y-3.8878
X4.071Y-3.587
X4.075Y-3.923
X4.077Y-3.344
X4.111Y-4.5685
X4.1126Y-3.22
X4.118Y-3.329
X4.1257Y-3.9313
X4.146Y-3.255
X4.205Y-3.707
X4.207Y-3.066
X4.2285Y-5.255
X4.236Y-3.297
X4.2658Y-3.7848
X4.3012Y-4.1068
X4.333Y-4.1515
X4.3399Y-4.1984
X4.3809Y-4.2984
X4.4407Y-4.4428
X4.4492Y-4.3428
X4.463Y-3.806
X4.5159Y-4.3984
X4.527Y-4.7855
X4.549Y-2.812
X4.5525Y-4.6015
X4.5564Y-2.0231
X4.575Y-3.737
X4.5859Y-4.4984
X4.5975Y-3.5715
X4.6232Y-4.6428
X4.625Y-3.539
X4.6674Y-4.5541
X4.668Y-5.139
X4.7772Y-3.4488
X4.8455Y-3.8305
X5.1367Y-1.7919
X5.261Y-3.05
X5.3144Y-1.8198
X5.339Y-3.623
X5.4459Y-1.8217
X5.494Y-4.779
X5.5082Y-2.5011
X5.6047Y-2.7093
X5.6512Y-1.8423
X5.6769Y-4.842
X5.6842Y-2.8335
X5.7066Y-2.6498
X5.7455Y-2.3921
X5.7472Y-2.8834
X5.8932Y-2.7232
X5.9147Y-3.4783
X5.9243Y-3.5842
X5.9653Y-2.8872
X5.9742Y-2.9403
X6.0125Y-1.8443
X6.0208Y-3.5834
X6.0258Y-3.4282
X6.0653Y-4.4067
X6.1413Y-1.9797
X6.1486Y-2.8756
X6.15Y-2.6226
X6.156Y-3.695
X6.3445Y-2.5238
X6.355Y-3.274
X6.4631Y-2.4389
X6.469Y-3.272
T2
X1.3787Y-4.1844
X1.3787Y-4.2844
X1.3787Y-4.3844
X3.3882Y-3.2482
X3.524Y-3.1123
X5.9519Y-3.1511
X6.144Y-3.1511
T3
X4.3872Y-1.2973
X4.3872Y-1.5139
T4
X4.955Y-5.155
X4.955Y-5.255
X5.055Y-5.155
X5.055Y-5.255
X5.155Y-5.155
X5.155Y-5.255
X5.255Y-5.155
X5.255Y-5.255
X5.355Y-5.155
X5.355Y-5.255
X5.455Y-5.155
X5.455Y-5.255
X5.555Y-5.155
X5.555Y-5.255
X5.655Y-5.155
X5.655Y-5.255
X5.755Y-5.155
X5.755Y-5.255
X5.855Y-5.155
X5.855Y-5.255
X6.2825Y-4.345
X6.2825Y-4.4541
X6.2825Y-4.5631
X6.2825Y-4.6722
X6.2825Y-4.7812
X6.3066Y-1.9819
X6.3066Y-2.1
X6.3066Y-2.2181
X6.3943Y-4.3995
X6.3943Y-4.5086
X6.3943Y-4.6176
X6.3943Y-4.7267
X6.5034Y-1.9819
X6.5034Y-2.1
X6.5034Y-2.2181
T5
X1.33Y-1.8425
X1.33Y-1.9425
X1.33Y-2.0425
X1.33Y-2.1425
X1.33Y-2.2425
X1.33Y-2.3425
X1.33Y-2.4425
X1.33Y-2.5425
X1.33Y-2.6425
X1.43Y-1.8425
X1.43Y-1.9425
X1.43Y-2.0425
X1.43Y-2.1425
X1.43Y-2.2425
X1.43Y-2.3425
X1.43Y-2.4425
X1.43Y-2.5425
X1.43Y-2.6425
X1.6782Y-4.1999
X1.6782Y-4.2999
X1.6975Y-3.5534
X1.6975Y-3.6534
X1.6975Y-3.7534
X1.6975Y-3.8534
X1.7388Y-4.8304
X1.7388Y-4.9304
X1.7782Y-4.1999
X1.7782Y-4.2999
X1.7975Y-3.5534
X1.7975Y-3.6534
X1.7975Y-3.7534
X1.7975Y-3.8534
X1.83Y-1.383
X1.83Y-1.483
X1.93Y-1.383
X1.93Y-1.483
X2.03Y-1.383
X2.03Y-1.483
X2.117Y-3.0195
X2.117Y-3.1195
X2.117Y-3.2195
X2.13Y-1.383
X2.13Y-1.483
X2.1475Y-5.0785
X2.1475Y-5.1785
X2.1475Y-5.2785
X2.217Y-3.0195
X2.217Y-3.1195
X2.217Y-3.2195
X2.2475Y-5.0785
X2.2475Y-5.1785
X2.2475Y-5.2785
X2.5Y-3.0984
X2.5Y-3.1984
X2.5Y-3.2984
X2.5Y-3.3984
X2.5Y-3.4984
X2.5Y-3.5984
X2.5Y-3.6984
X2.5Y-3.7984
X2.5Y-3.8984
X2.5Y-3.9984
X2.5Y-4.0984
X2.5Y-4.1984
X2.5Y-4.2984
X2.5Y-4.3984
X2.5Y-4.4984
X2.5Y-4.5984
X2.5Y-4.6984
X2.6Y-3.0984
X2.6Y-3.1984
X2.6Y-3.2984
X2.6Y-3.3984
X2.6Y-3.4984
X2.6Y-3.5984
X2.6Y-3.6984
X2.6Y-3.7984
X2.6Y-3.8984
X2.6Y-3.9984
X2.6Y-4.0984
X2.6Y-4.1984
X2.6Y-4.2984
X2.6Y-4.3984
X2.6Y-4.4984
X2.6Y-4.5984
X2.6Y-4.6984
X3.0773Y-4.8599
X3.0773Y-4.9599
X3.1773Y-4.8599
X3.1773Y-4.9599
X3.2773Y-4.8599
X3.2773Y-4.9599
X3.3773Y-4.8599
X3.3773Y-4.9599
X3.4773Y-4.8599
X3.4773Y-4.9599
X3.5773Y-4.8599
X3.5773Y-4.9599
X3.6773Y-4.8599
X3.6773Y-4.9599
X3.7773Y-4.8599
X3.7773Y-4.9599
X3.8773Y-4.8599
X3.8773Y-4.9599
X3.9773Y-4.8599
X3.9773Y-4.9599
X4.0773Y-4.8599
X4.0773Y-4.9599
X4.1773Y-4.8599
X4.1773Y-4.9599
X4.2773Y-4.8599
X4.2773Y-4.9599
X4.3773Y-4.8599
X4.3773Y-4.9599
X4.4452Y-2.1901
X4.4773Y-4.8599
X4.4773Y-4.9599
X4.5452Y-2.1901
X4.5773Y-4.8599
X4.5773Y-4.9599
X5.1Y-2.5984
X5.1Y-2.6984
X5.1Y-2.7984
X5.1Y-2.8984
X5.1Y-2.9984
X5.1Y-3.0984
X5.1Y-3.1984
X5.1Y-3.2984
X5.1Y-3.3984
X5.1Y-3.4984
X5.1Y-3.5984
X5.1Y-3.6984
X5.1Y-3.7984
X5.1Y-3.8984
X5.1Y-3.9984
X5.1Y-4.0984
X5.1Y-4.1984
X5.1Y-4.2984
X5.1Y-4.3984
X5.1Y-4.4984
X5.1Y-4.5984
X5.1Y-4.6984
X5.1001Y-2.4984
X5.2Y-2.5984
X5.2Y-2.6984
X5.2Y-2.7984
X5.2Y-2.8984
X5.2Y-2.9984
X5.2Y-3.0984
X5.2Y-3.1984
X5.2Y-3.2984
X5.2Y-3.3984
X5.2Y-3.4984
X5.2Y-3.5984
X5.2Y-3.6984
X5.2Y-3.7984
X5.2Y-3.8984
X5.2Y-3.9984
X5.2Y-4.0984
X5.2Y-4.1984
X5.2Y-4.2984
X5.2Y-4.3984
X5.2Y-4.4984
X5.2Y-4.5984
X5.2Y-4.6984
X5.2001Y-2.4984
X5.4023Y-4.4626
X5.4023Y-4.5626
X5.4185Y-2.0277
X5.4185Y-2.1277
X5.5023Y-4.4626
X5.5023Y-4.5626
X5.5043Y-3.6276
X5.5043Y-3.7276
X5.5185Y-2.0277
X5.5185Y-2.1277
X5.5621Y-2.925
X5.5621Y-3.025
X5.5621Y-3.125
X5.5621Y-3.225
X5.6043Y-3.6276
X5.6043Y-3.7276
X5.6621Y-2.925
X5.6621Y-3.025
X5.6621Y-3.125
X5.6621Y-3.225
X5.8Y-1.25
X5.8Y-1.35
X5.8Y-1.45
X5.9Y-1.25
X5.9Y-1.35
X5.9Y-1.45
X6.1475Y-1.2525
X6.1475Y-1.3525
X6.1475Y-1.4525
X6.2475Y-1.2525
X6.2475Y-1.3525
X6.2475Y-1.4525
T6
X4.0383Y-2.0626
T7
X2.589Y-2.2073
X2.589Y-2.5025
T8
X1.4292Y-3.0169
X1.4292Y-3.2138
X5.162Y-1.343
X5.3589Y-1.343
T9
X3.2115Y-2.0626
T10
X1.3189Y-1.3189
X1.3189Y-5.2953
X2.8037Y-1.5134
X2.8824Y-1.8284
X4.7722Y-1.8284
X4.8509Y-1.5134
X6.2943Y-4.071
X6.2943Y-5.0552
X6.4764Y-1.3189
X6.4825Y-5.305
T0
M30
